<?xml version="1.0" encoding="UTF-8" standalone="no"?>
<svg
   xmlns:dc="http://purl.org/dc/elements/1.1/"
   xmlns:cc="http://creativecommons.org/ns#"
   xmlns:rdf="http://www.w3.org/1999/02/22-rdf-syntax-ns#"
   xmlns:svg="http://www.w3.org/2000/svg"
   xmlns="http://www.w3.org/2000/svg"
   xmlns:sodipodi="http://sodipodi.sourceforge.net/DTD/sodipodi-0.dtd"
   xmlns:inkscape="http://www.inkscape.org/namespaces/inkscape"
   viewBox="0 0 36 36"
   id="svg2"
   version="1.1"
   inkscape:version="0.91 r13725"
   sodipodi:docname="noogler.svg">
  <metadata
     id="metadata18">
    <rdf:RDF>
      <cc:Work
         rdf:about="">
        <dc:format>image/svg+xml</dc:format>
        <dc:type
           rdf:resource="http://purl.org/dc/dcmitype/StillImage" />
        <dc:title></dc:title>
      </cc:Work>
    </rdf:RDF>
  </metadata>
  <defs
     id="defs16" />
  <sodipodi:namedview
     pagecolor="#ffffff"
     bordercolor="#666666"
     borderopacity="1"
     objecttolerance="10"
     gridtolerance="10"
     guidetolerance="10"
     inkscape:pageopacity="0"
     inkscape:pageshadow="2"
     inkscape:window-width="1409"
     inkscape:window-height="891"
     id="namedview14"
     showgrid="false"
     inkscape:zoom="13.111111"
     inkscape:cx="22.23168"
     inkscape:cy="20.265683"
     inkscape:window-x="141"
     inkscape:window-y="0"
     inkscape:window-maximized="0"
     inkscape:current-layer="svg2" />
  <ellipse
     transform="rotate(-87.495 21.25 5.018)"
     fill="#2B7BB9"
     cx="21.249"
     cy="5.018"
     rx=".944"
     ry="1.565"
     id="ellipse4"
     style="stroke:#000000;stroke-opacity:1" />
  <path
     fill="#292F33"
     d="M29.831 27.74s3.523 1.385 5.185.088c.125-1.17-3.311-2.035-3.311-2.035l-1.874 1.947zM7.527 25.549S2.271 33.375.77 32.031c0 0-.425-1.397 1.23-4.218 1.656-2.822 5.527-2.264 5.527-2.264z"
     id="path6"
     style="stroke:#000000;stroke-opacity:1" />
  <path
     fill="#1C6399"
     d="M19.766 4.82s-8.537.43-13.735 16.348c7.494 0 16.785.555 16.785.555s7.799 3.982 8.889 4.469c1.089.487 3.311 1.637 3.311 1.637s1.089-5.531.305-9.69S30.79 4.997 19.766 4.82z"
     id="path8"
     style="stroke:#000000;stroke-opacity:1;fill:#093a8e;fill-opacity:1" />
  <path
     fill="#1C6399"
     d="M3.354 25.167C1.521 28.209.138 30.988.77 32.031c0 0-.203-.761.775-1.633.892-.795 2.805-1.522 6.461-1.522 5.534 0 13.006 4.498 16.119 5.562 2.375.812 2.875.188 4.188-1.25 1.4-1.534 3.716-6.904 3.716-6.904s-7.47-4.107-11.871-5.726-5.358-1.427-6.752-1.401c-3.056.057-5.314.671-7.375 2.011 0 0-1.494 2.036-2.677 3.999z"
     id="path10"
     style="stroke:#000000;stroke-opacity:1;fill:#34a853;fill-opacity:1" />
  <path
     d="M 31.465119,11.377136 C 29.062746,7.2858305 26.577,6.263 26.577,6.263 24.682,5.38 22.419,4.815 19.713,4.772 c 0,0 -12.192,-0.105 -13.681,16.395 0,0 2.541,-1.115 7.92,-0.793 7.299,0.438 16.930949,5.261068 18.502949,5.956068 0.83,-2.779 1.252593,-11.36156 -0.98983,-14.952932 z"
     id="path12"
     style="fill:#fbbc05;stroke:#000000;stroke-opacity:1;fill-opacity:1"
     inkscape:connector-curvature="0"
     sodipodi:nodetypes="ccccccc" />
  <g
     inkscape:groupmode="layer"
     id="layer1"
     inkscape:label="Base" />
  <g
     inkscape:groupmode="layer"
     id="layer2"
     inkscape:label="Base 1">
    <path
       sodipodi:nodetypes="cc"
       inkscape:connector-curvature="0"
       id="path4268"
       d="M 14.137893,8.5091701 C 9.5818933,12.729878 7.5220906,20.470422 7.5220906,20.470422"
       style="fill:none;fill-rule:evenodd;stroke:#4285f4;stroke-width:3.88400006;stroke-linecap:butt;stroke-linejoin:bevel;stroke-miterlimit:4;stroke-dasharray:none;stroke-opacity:1" />
    <ellipse
       style="opacity:1;fill:#4285f4;fill-opacity:1;stroke:none;stroke-width:3.88400006;stroke-linecap:butt;stroke-linejoin:bevel;stroke-miterlimit:4;stroke-dasharray:none;stroke-opacity:1"
       id="path4271"
       cx="6.9025426"
       cy="20.25"
       rx="0.72457629"
       ry="0.49576271" />
    <ellipse
       style="opacity:1;fill:#4285f4;fill-opacity:1;stroke:none;stroke-width:3.88400006;stroke-linecap:butt;stroke-linejoin:bevel;stroke-miterlimit:4;stroke-dasharray:none;stroke-opacity:1"
       id="path4273"
       cx="14.319916"
       cy="7.7033896"
       rx="1.697034"
       ry="1.5635593" />
    <ellipse
       ry="1.5635593"
       rx="1.697034"
       cy="6.6355929"
       cx="16.150425"
       id="ellipse4275"
       style="opacity:1;fill:#4285f4;fill-opacity:1;stroke:none;stroke-width:3.88400006;stroke-linecap:butt;stroke-linejoin:bevel;stroke-miterlimit:4;stroke-dasharray:none;stroke-opacity:1" />
    <ellipse
       style="opacity:1;fill:#4285f4;fill-opacity:1;stroke:none;stroke-width:3.88400006;stroke-linecap:butt;stroke-linejoin:bevel;stroke-miterlimit:4;stroke-dasharray:none;stroke-opacity:1"
       id="ellipse4277"
       cx="18.266951"
       cy="5.5868645"
       rx="1.1822035"
       ry="0.74364406" />
    <path
       style="fill:none;fill-rule:evenodd;stroke:#ea4335;stroke-width:3.88400006;stroke-linecap:butt;stroke-linejoin:bevel;stroke-miterlimit:4;stroke-dasharray:none;stroke-opacity:1"
       d="m 25.578571,8.0896783 c 8.333831,6.1656237 4.596062,17.1858287 4.596062,17.1858287"
       id="path4279"
       inkscape:connector-curvature="0"
       sodipodi:nodetypes="cc" />
    <path
       sodipodi:nodetypes="cc"
       inkscape:connector-curvature="0"
       id="path4281"
       d="M 25.349757,7.0218817 C 29.309124,21.936242 28.318185,22.718965 28.458531,23.940761"
       style="fill:none;fill-rule:evenodd;stroke:#ea4335;stroke-width:3.88400006;stroke-linecap:butt;stroke-linejoin:bevel;stroke-miterlimit:4;stroke-dasharray:none;stroke-opacity:1" />
    <ellipse
       style="opacity:1;fill:#ea4335;fill-opacity:1;stroke:none;stroke-width:3.88400006;stroke-linecap:butt;stroke-linejoin:bevel;stroke-miterlimit:4;stroke-dasharray:none;stroke-opacity:1"
       id="path4283"
       cx="25.226696"
       cy="7.1694918"
       rx="2.1546609"
       ry="1.5254238" />
    <ellipse
       ry="0.59110171"
       rx="0.87711859"
       cy="5.9682202"
       cx="23.491528"
       id="ellipse4285"
       style="opacity:1;fill:#ea4335;fill-opacity:1;stroke:none;stroke-width:3.88400006;stroke-linecap:butt;stroke-linejoin:bevel;stroke-miterlimit:4;stroke-dasharray:none;stroke-opacity:1" />
  </g>
  <g
     inkscape:groupmode="layer"
     id="layer3"
     inkscape:label="Base 2"
     sodipodi:insensitive="true"
     style="display:inline">
    <path
       sodipodi:nodetypes="ccccccc"
       inkscape:connector-curvature="0"
       style="fill:none;fill-opacity:1;stroke:#000000;stroke-opacity:1"
       id="path4261"
       d="M 31.465119,11.377136 C 29.062746,7.2858305 26.577,6.263 26.577,6.263 24.682,5.38 22.419,4.815 19.713,4.772 c 0,0 -12.192,-0.105 -13.681,16.395 0,0 2.541,-1.115 7.92,-0.793 7.299,0.438 16.930949,5.261068 18.502949,5.956068 0.83,-2.779 1.252593,-11.36156 -0.98983,-14.952932 z" />
    <path
       style="fill:none;fill-rule:evenodd;stroke:#000000;stroke-width:1px;stroke-linecap:butt;stroke-linejoin:miter;stroke-opacity:1"
       d="M 20.93644,5.0720339 C 12.673532,8.1923798 10.220339,20.097457 10.220339,20.097457"
       id="path4146"
       inkscape:connector-curvature="0"
       sodipodi:nodetypes="cc" />
    <path
       style="fill:none;fill-rule:evenodd;stroke:#000000;stroke-width:1px;stroke-linecap:butt;stroke-linejoin:miter;stroke-opacity:1"
       d="m 21.127118,4.9576271 c 5.401357,2.9751584 5.11017,18.4576279 5.11017,18.4576279"
       id="path4168"
       inkscape:connector-curvature="0"
       sodipodi:nodetypes="cc" />
  </g>
  <ellipse
     style="opacity:1;fill:#0a48ae;fill-opacity:1;stroke:#000000;stroke-width:0.19153413;stroke-miterlimit:4;stroke-dasharray:none;stroke-opacity:1"
     id="path4231"
     cx="21.343777"
     cy="3.6139097"
     rx="0.68098354"
     ry="0.62705171" />
  <ellipse
     ry="0.62705171"
     rx="0.68098354"
     cy="2.8858292"
     cx="21.343777"
     id="ellipse4233"
     style="opacity:1;fill:#fbbc05;fill-opacity:1;stroke:#000000;stroke-width:0.19153413;stroke-miterlimit:4;stroke-dasharray:none;stroke-opacity:1" />
  <ellipse
     style="opacity:1;fill:#ea4335;fill-opacity:1;stroke:#000000;stroke-width:0.19153413;stroke-miterlimit:4;stroke-dasharray:none;stroke-opacity:1"
     id="ellipse4235"
     cx="21.343777"
     cy="2.1307831"
     rx="0.68098354"
     ry="0.62705171" />
  <ellipse
     style="opacity:1;fill:#0a48ae;fill-opacity:1;stroke:#000000;stroke-width:0.23909567;stroke-miterlimit:4;stroke-dasharray:none;stroke-opacity:1"
     id="path4227"
     cx="14.831264"
     cy="1.5644989"
     rx="6.5410953"
     ry="0.7164526" />
  <ellipse
     ry="0.7164526"
     rx="6.5410953"
     cy="1.6184306"
     cx="27.936708"
     id="ellipse4229"
     style="opacity:1;fill:#0a48ae;fill-opacity:1;stroke:#000000;stroke-width:0.23909567;stroke-miterlimit:4;stroke-dasharray:none;stroke-opacity:1" />
  <ellipse
     ry="0.62705171"
     rx="0.68098354"
     cy="1.294839"
     cx="21.343777"
     id="ellipse4237"
     style="opacity:1;fill:#34a853;fill-opacity:1;stroke:#000000;stroke-width:0.19153413;stroke-miterlimit:4;stroke-dasharray:none;stroke-opacity:1" />
</svg>
