<?xml version="1.0" encoding="UTF-8" standalone="no"?>
<!-- Created with Inkscape (http://www.inkscape.org/) -->

<svg
   xmlns:dc="http://purl.org/dc/elements/1.1/"
   xmlns:cc="http://creativecommons.org/ns#"
   xmlns:rdf="http://www.w3.org/1999/02/22-rdf-syntax-ns#"
   xmlns:svg="http://www.w3.org/2000/svg"
   xmlns="http://www.w3.org/2000/svg"
   version="1.1"
   width="900"
   height="400"
   viewBox="0 0 720 320"
   id="svg2">
  <metadata
     id="metadata73">
    <rdf:RDF>
      <cc:Work
         rdf:about="">
        <dc:format>image/svg+xml</dc:format>
        <dc:type
           rdf:resource="http://purl.org/dc/dcmitype/StillImage" />
        <dc:title></dc:title>
      </cc:Work>
    </rdf:RDF>
  </metadata>
  <defs
     id="defs71">
    <clipPath
       id="clipPath3063">
      <rect
         width="160.46516"
         height="187.38884"
         x="124.38743"
         y="-115.83732"
         id="rect3065"
         style="fill:#ffffff;fill-opacity:1;stroke:none" />
    </clipPath>
  </defs>
  <g
     transform="matrix(1.1211575,0,0,1.1211575,-15.230825,-48.682824)"
     id="g3979">
    <path
       d="m 84.27655,168.22091 -2.252393,0 0,16.6361 -9.562788,0 0,-56.25337 9.562788,0 0,33.18751 1.930623,-1.12337 6.666856,-15.99256 10.370034,0 -7.395069,15.90788 -3.454797,2.73223 3.776567,2.73222 8.196679,18.80946 -10.770842,0 -7.067658,-16.6361"
       id="path5"
       style="fill:#452768;fill-opacity:1;fill-rule:nonzero;stroke:none" />
    <path
       d="m 105.66017,147.08568 c 1.60885,-0.96531 3.61286,-1.73868 6.02331,-2.33142 2.4161,-0.58709 5.14833,-0.88064 8.19668,-0.88064 4.55559,0 7.71684,1.17418 9.48376,3.53384 1.82336,2.35399 2.73222,5.70719 2.73222,10.04262 0,2.5177 -0.079,5.01285 -0.23709,7.4741 -0.10726,2.41046 -0.19193,4.79833 -0.24274,7.15234 -0.0565,2.30319 -0.0282,4.55558 0.079,6.75152 0.1637,2.13949 0.53628,4.17738 1.12337,6.108 l -7.79023,0 -1.52982,-4.9056 -0.32177,0 c -0.85806,1.55806 -2.06046,2.8395 -3.61286,3.86126 -1.55805,1.01611 -3.51125,1.52417 -5.8709,1.52417 -3.16125,0 -5.65074,-1.04434 -7.4741,-3.13302 -1.81772,-2.14515 -2.73223,-4.98462 -2.73223,-8.51845 0,-4.82091 1.71611,-8.24748 5.14833,-10.28536 3.42657,-2.03789 8.06119,-2.89594 13.89822,-2.57417 0.27096,-3.1048 0.0564,-5.35719 -0.64354,-6.74589 -0.64354,-1.39433 -2.06046,-2.08868 -4.2564,-2.08868 -1.60886,0 -3.26851,0.1863 -4.98462,0.55887 -1.71047,0.37822 -3.24029,0.9145 -4.57817,1.60885 l -2.41046,-7.15234 m 11.48776,30.13351 c 1.45079,0 2.63062,-0.35 3.53948,-1.04433 0.90886,-0.75081 1.58062,-1.55241 2.00965,-2.41046 l 0,-6.66685 c -1.23627,-0.16371 -2.41045,-0.19195 -3.53947,-0.0847 -1.12338,0.10723 -2.11127,0.35 -2.96932,0.72257 -0.85806,0.37823 -1.55805,0.93709 -2.08869,1.68789 -0.48547,0.7 -0.72821,1.60885 -0.72821,2.73223 0,1.6653 0.32177,2.92415 0.96531,3.77657 0.69999,0.85805 1.63707,1.28707 2.81125,1.28707"
       id="path7"
       style="fill:#452768;fill-opacity:1;fill-rule:nonzero;stroke:none" />
    <path
       d="m 135.56223,144.67522 4.42011,0 0,-7.55313 9.56279,-2.97496 0,10.52809 7.79587,0 0,8.51845 -7.79587,0 0,17.51674 c 0,2.30319 0.21451,3.94027 0.64354,4.89993 0.47983,0.96531 1.30966,1.4508 2.48949,1.4508 0.80161,0 1.52982,-0.0847 2.16772,-0.24275 0.64353,-0.15807 1.34353,-0.40081 2.09433,-0.72257 l 1.2024,7.63217 c -1.17983,0.59273 -2.54594,1.07257 -4.09834,1.44514 -1.5524,0.42902 -3.18948,0.64354 -4.89994,0.64354 -3.054,0 -5.3572,-0.88063 -6.91524,-2.64755 -1.49595,-1.77255 -2.24675,-4.74188 -2.24675,-8.92489 l 0,-21.05056 -4.42011,0 0,-8.51845"
       id="path9"
       style="fill:#452768;fill-opacity:1;fill-rule:nonzero;stroke:none" />
    <path
       d="m 162.88449,144.67522 9.56279,0 0,40.18179 -9.56279,0 0,-40.18179 m -1.12338,-11.3297 c 0,-1.60885 0.50807,-2.91851 1.52418,-3.94027 1.02176,-1.07257 2.4669,-1.60885 4.34108,-1.60885 1.87416,0 3.37577,0.5137 4.49914,1.52982 1.12337,1.01611 1.68788,2.35965 1.68788,4.0193 0,1.65967 -0.56451,2.96933 -1.68788,3.93463 -1.12337,0.96531 -2.62498,1.44514 -4.49914,1.44514 -1.87418,0 -3.31932,-0.47983 -4.34108,-1.44514 -1.01611,-1.01611 -1.52418,-2.33142 -1.52418,-3.93463"
       id="path11"
       style="fill:#452768;fill-opacity:1;fill-rule:nonzero;stroke:none" />
    <path
       d="m 207.29445,181.88203 c -1.34354,1.17984 -3.16126,2.1395 -5.46445,2.89029 -2.3032,0.75081 -4.71366,1.12902 -7.23137,1.12902 -2.78868,0 -5.19914,-0.48547 -7.23701,-1.45078 -1.98144,-0.95966 -3.61286,-2.35401 -4.89995,-4.17738 -1.28707,-1.82336 -2.25239,-4.0193 -2.89029,-6.58781 -0.59272,-2.62498 -0.88628,-5.59994 -0.88628,-8.91925 0,-7.23137 1.41692,-12.56599 4.2564,-15.99255 2.89594,-3.48303 6.88702,-5.22171 11.97325,-5.22171 1.71611,0 3.37577,0.26531 4.98462,0.8016 1.60885,0.47983 3.02577,1.33789 4.26205,2.56852 1.28144,1.17983 2.3032,2.78868 3.04834,4.82655 0.80726,1.98143 1.20806,4.49913 1.20806,7.55314 0,1.17418 -0.079,2.43868 -0.24274,3.77657 -0.10723,1.33788 -0.29354,2.78303 -0.55887,4.33543 l -19.53202,0 c 0.10723,3.32496 0.80724,5.8709 2.09433,7.6378 1.28143,1.76692 3.34753,2.6532 6.18703,2.6532 1.71045,0 3.26849,-0.27096 4.65719,-0.80724 1.45079,-0.53629 2.54594,-1.09516 3.29673,-1.68789 l 2.97498,6.67249 m -12.53777,-30.1335 c -2.03787,0 -3.56205,0.82983 -4.57816,2.48949 -1.02176,1.60885 -1.60885,3.88382 -1.77257,6.83056 l 11.09261,0 c 0.15807,-3.054 -0.16371,-5.35719 -0.9653,-6.9096 -0.80161,-1.60885 -2.06047,-2.41045 -3.77658,-2.41045"
       id="path13"
       style="fill:#452768;fill-opacity:1;fill-rule:nonzero;stroke:none" />
    <path
       d="m 260.51074,145.96231 5.30639,0 -3.13303,21.93683 c -0.64353,4.87172 0.13541,7.3104 2.33143,7.3104 1.06692,0 2.11127,-0.32177 3.13303,-0.96531 1.07257,-0.6379 2.00966,-1.63144 2.81125,-2.96932 0.85805,-1.33789 1.52418,-3.054 2.00966,-5.14268 0.53628,-2.08868 0.80161,-4.58382 0.80161,-7.47411 0,-3.69753 -0.5363,-6.85878 -1.60322,-9.48376 -1.02176,-2.67577 -2.4669,-4.84913 -4.34108,-6.50878 -1.87416,-1.71611 -4.09833,-2.97498 -6.67249,-3.77657 -2.56853,-0.8016 -5.37978,-1.20805 -8.43378,-1.20805 -3.43221,0 -6.64428,0.69998 -9.64746,2.09433 -2.94673,1.33789 -5.51526,3.24027 -7.7112,5.70154 -2.14513,2.46691 -3.8556,5.41364 -5.14268,8.84022 -1.23627,3.42657 -1.85159,7.23136 -1.85159,11.41437 0,8.19669 2.03787,14.43451 6.10799,18.71914 4.07012,4.29027 9.7773,6.42977 17.11593,6.42977 1.39433,0 2.92416,-0.1863 4.58381,-0.55887 1.71047,-0.37822 3.24028,-0.9145 4.57817,-1.60885 l 2.33142,6.98862 c -1.71611,0.91451 -3.59027,1.58062 -5.62251,2.00966 -2.03788,0.48548 -4.34108,0.72257 -6.91524,0.72257 -4.22818,0 -8.19667,-0.64354 -11.89422,-1.92498 -3.64108,-1.28709 -6.83056,-3.26851 -9.56278,-5.94993 -2.73223,-2.62497 -4.89994,-5.97251 -6.50879,-10.04262 -1.55241,-4.12657 -2.32578,-9.00393 -2.32578,-14.62644 0,-5.62252 0.88063,-10.66359 2.64755,-15.10628 1.82337,-4.44832 4.23381,-8.19667 7.23701,-11.25066 2.99754,-3.05399 6.45234,-5.38542 10.36438,-6.99428 3.91207,-1.6032 8.01039,-2.41045 12.29503,-2.41045 4.0701,0 7.87491,0.61531 11.40873,1.85159 3.59028,1.17982 6.67251,2.96932 9.24102,5.37977 2.62497,2.35965 4.69107,5.33462 6.18702,8.92489 1.5016,3.53384 2.25239,7.6604 2.25239,12.37405 0,3.53384 -0.53628,6.83058 -1.60885,9.88457 -1.01611,2.99755 -2.41046,5.59428 -4.17736,7.79587 -1.76692,2.1395 -3.8556,3.82737 -6.26606,5.05801 -2.35965,1.23628 -4.87736,1.85159 -7.55313,1.85159 -2.19594,0 -4.07577,-0.56452 -5.62816,-1.68789 -1.50161,-1.12338 -2.19595,-3.08221 -2.08869,-5.86526 l -0.24275,0 c -1.23062,2.03224 -2.73221,3.80481 -4.49913,5.30075 -1.71611,1.5016 -3.82737,2.2524 -6.34508,2.2524 -2.30885,0 -4.26205,-1.01613 -5.8709,-3.054 -1.60321,-2.03788 -2.41046,-4.87736 -2.41046,-8.51844 0,-3.59029 0.42902,-6.96606 1.28708,-10.12731 0.90886,-3.16125 2.11692,-5.91606 3.61851,-8.2757 1.49595,-2.41046 3.24029,-4.31285 5.22171,-5.7072 1.98143,-1.38869 4.09834,-2.08868 6.35073,-2.08868 1.49595,0 2.78303,0.27097 3.8556,0.80724 1.07257,0.5363 2.06046,1.25887 2.97497,2.16772 l 2.004,-2.48948 m -4.2564,9.24102 c -0.96531,-1.12902 -2.22416,-1.68788 -3.77657,-1.68788 -1.23062,0 -2.35964,0.4516 -3.37577,1.36611 -1.01611,0.85805 -1.90238,2.03223 -2.65318,3.53382 -0.75081,1.44514 -1.3379,3.13303 -1.76692,5.06366 -0.42903,1.87417 -0.64354,3.82737 -0.64354,5.86524 0,1.87418 0.29354,3.32498 0.88628,4.34109 0.64354,1.01612 1.60885,1.52417 2.89029,1.52417 1.17982,0 2.35965,-0.64353 3.53948,-1.92497 1.23062,-1.34354 2.24673,-2.8169 3.05399,-4.42012 l 1.84594,-13.66112"
       id="path15"
       style="fill:#452768;fill-opacity:1;fill-rule:nonzero;stroke:none" />
    <path
       d="m 318.68344,184.85701 c 0,5.83702 -1.33789,10.12164 -4.01931,12.85388 -2.68142,2.78868 -6.40154,4.17736 -11.17164,4.17736 -3.31931,0 -5.91606,-0.26532 -7.79588,-0.80159 -1.87416,-0.47984 -3.3193,-1.01613 -4.33543,-1.60885 l 2.00966,-8.11202 c 1.17418,0.47985 2.43303,0.93709 3.77657,1.36613 1.38868,0.42338 3.02577,0.63788 4.89993,0.63788 2.73224,0 4.6064,-0.74514 5.62816,-2.24673 1.06692,-1.44515 1.60321,-3.66933 1.60321,-6.67251 l 0,-2.16771 -0.23709,0 c -0.75081,1.07257 -1.77257,1.87416 -3.054,2.41045 -1.23627,0.53628 -2.83948,0.8016 -4.82655,0.8016 -4.22818,0 -7.41765,-1.58063 -9.5628,-4.73623 -2.08868,-3.2177 -3.13303,-8.28136 -3.13303,-15.19095 0,-7.44588 1.4508,-12.93855 4.34109,-16.47238 2.94673,-3.53947 7.12411,-5.30639 12.53775,-5.30639 2.89029,0 5.48704,0.24274 7.79587,0.72257 2.3032,0.42903 4.14916,0.96531 5.54349,1.60885 l 0,38.73664 m -14.86918,-7.55878 c 1.44515,0 2.57417,-0.34435 3.37577,-1.04435 0.85806,-0.69435 1.50159,-1.68787 1.93061,-2.96931 l 0,-20.0909 c -0.59272,-0.27096 -1.25885,-0.48547 -2.00964,-0.64354 -0.69435,-0.1637 -1.52983,-0.24274 -2.48949,-0.24274 -1.98708,0 -3.53948,0.96532 -4.66285,2.89594 -1.07257,1.92498 -1.60885,5.24993 -1.60885,9.96359 0,8.08943 1.82337,12.13131 5.46445,12.13131"
       id="path17"
       style="fill:#452768;fill-opacity:1;fill-rule:nonzero;stroke:none" />
    <path
       d="m 335.26308,171.83377 c 0,1.87982 0.19193,3.2177 0.56451,4.01931 0.37257,0.80724 0.99353,1.20806 1.84595,1.20806 0.48547,0 0.9653,-0.0565 1.45078,-0.16371 0.5363,-0.10723 1.12338,-0.29355 1.76692,-0.55887 l 0.88063,7.71119 c -0.63789,0.42904 -1.73868,0.82983 -3.29109,1.20805 -1.5524,0.37258 -3.13302,0.55887 -4.74187,0.55887 -2.68143,0 -4.69107,-0.66612 -6.02897,-2.00965 -1.33789,-1.3379 -2.00965,-3.61286 -2.00965,-6.83057 l 0,-48.37281 9.56279,0 0,43.23013"
       id="path19"
       style="fill:#452768;fill-opacity:1;fill-rule:nonzero;stroke:none" />
    <path
       d="m 345.08554,147.08568 c 1.60322,-0.96531 3.61286,-1.73868 6.02332,-2.33142 2.41046,-0.58709 5.14267,-0.88064 8.19668,-0.88064 4.55559,0 7.71684,1.17418 9.48376,3.53384 1.82335,2.35399 2.73222,5.70719 2.73222,10.04262 0,2.5177 -0.079,5.01285 -0.24274,7.4741 -0.10723,2.41046 -0.18628,4.79833 -0.23709,7.15234 -0.0565,2.30319 -0.0282,4.55558 0.079,6.75152 0.15805,2.13949 0.53628,4.17738 1.12337,6.108 l -7.79588,0 -1.52418,-4.9056 -0.32176,0 c -0.85805,1.55806 -2.06047,2.8395 -3.61851,3.86126 -1.5524,1.01611 -3.5056,1.52417 -5.86525,1.52417 -3.16125,0 -5.65074,-1.04434 -7.47411,-3.13302 -1.81771,-2.14515 -2.73222,-4.98462 -2.73222,-8.51845 0,-4.82091 1.71611,-8.24748 5.14268,-10.28536 3.43222,-2.03789 8.06684,-2.89594 13.90386,-2.57417 0.27097,-3.1048 0.0565,-5.35719 -0.64354,-6.74589 -0.64353,-1.39433 -2.06045,-2.08868 -4.25639,-2.08868 -1.60885,0 -3.26852,0.1863 -4.98462,0.55887 -1.71046,0.37822 -3.24029,0.9145 -4.57818,1.60885 l -2.41047,-7.15234 m 11.48777,30.13351 c 1.45079,0 2.62497,-0.35 3.53948,-1.04433 0.90886,-0.75081 1.58062,-1.55241 2.00964,-2.41046 l 0,-6.66685 c -1.23626,-0.16371 -2.41044,-0.19195 -3.53946,-0.0847 -1.12338,0.10723 -2.11692,0.35 -2.96932,0.72257 -0.85806,0.37823 -1.55806,0.93709 -2.09433,1.68789 -0.47984,0.7 -0.72258,1.60885 -0.72258,2.73223 0,1.6653 0.32178,2.92415 0.96532,3.77657 0.69998,0.85805 1.63707,1.28707 2.81125,1.28707"
       id="path21"
       style="fill:#452768;fill-opacity:1;fill-rule:nonzero;stroke:none" />
    <path
       d="m 391.6237,174.1652 c 0,-1.12337 -0.37822,-2.06046 -1.12901,-2.81126 -0.69435,-0.8016 -1.60322,-1.52418 -2.73224,-2.16771 -1.12337,-0.7 -2.33142,-1.39434 -3.61286,-2.08868 -1.23627,-0.7 -2.41045,-1.55806 -3.53947,-2.57417 -1.12337,-1.01612 -2.06046,-2.2524 -2.81126,-3.69754 -0.69434,-1.44515 -1.04434,-3.26851 -1.04434,-5.46445 0,-3.74835 1.01612,-6.64427 3.054,-8.6765 2.03787,-2.03789 5.03542,-3.054 8.99828,-3.054 2.35965,0 4.58381,0.26532 6.67251,0.80159 2.08868,0.48549 3.74834,1.1008 4.97897,1.85159 l -2.24676,7.38943 c -1.02176,-0.42902 -2.25238,-0.82981 -3.69753,-1.2024 -1.44514,-0.42902 -2.86771,-0.64354 -4.25641,-0.64354 -2.63061,0 -3.94027,1.09515 -3.94027,3.29109 0,1.02177 0.35,1.87982 1.04435,2.57416 0.75079,0.64355 1.68788,1.28709 2.81125,1.93062 1.12902,0.64354 2.3032,1.30967 3.53948,2.00966 1.28143,0.69435 2.48949,1.57498 3.61286,2.64755 1.12336,1.02176 2.03788,2.28061 2.73221,3.77657 0.75081,1.50159 1.12339,3.34754 1.12902,5.54912 -0.006,3.6919 -1.12902,6.66685 -3.37575,8.91926 -2.2524,2.24673 -5.59994,3.37575 -10.04828,3.37575 -2.19594,0 -4.36365,-0.27096 -6.50878,-0.80724 -2.0887,-0.53628 -3.77658,-1.23063 -5.06366,-2.08868 l 2.6532,-7.7112 c 1.12337,0.6379 2.41046,1.2024 3.8556,1.68223 1.50159,0.48548 3.054,0.72822 4.66285,0.72822 1.23062,0 2.25238,-0.27096 3.05399,-0.80724 0.80161,-0.58709 1.20805,-1.49596 1.20805,-2.73223"
       id="path23"
       style="fill:#452768;fill-opacity:1;fill-rule:nonzero;stroke:none" />
    <path
       d="m 426.14346,184.85701 0,-24.43197 c 0,-2.94673 -0.35,-5.00719 -1.04435,-6.18702 -0.69435,-1.17983 -1.87418,-1.76692 -3.53383,-1.76692 -1.39434,0 -2.60238,0.42903 -3.61851,1.28144 -1.01611,0.85805 -1.73868,1.93062 -2.16771,3.2177 l 0,27.88677 -9.5628,0 0,-40.18179 7.63217,0 1.12338,4.66285 0.24275,0 c 0.96529,-1.55804 2.27496,-2.8677 3.94027,-3.94027 1.65966,-1.12337 3.82737,-1.68789 6.50878,-1.68789 1.60322,0 3.02577,0.24274 4.25641,0.72257 1.28708,0.48549 2.35965,1.28709 3.2177,2.41046 0.85241,1.07257 1.49596,2.54594 1.92498,4.42012 0.42903,1.82335 0.64354,4.09833 0.64354,6.83056 l 0,26.76339 -9.56278,0"
       id="path25"
       style="fill:#452768;fill-opacity:1;fill-rule:nonzero;stroke:none" />
    <path
       d="m 439.17798,144.67522 4.4201,0 0,-7.55313 9.56279,-2.97496 0,10.52809 7.79588,0 0,8.51845 -7.79588,0 0,17.51674 c 0,2.30319 0.21452,3.94027 0.64354,4.89993 0.48548,0.96531 1.31531,1.4508 2.48949,1.4508 0.80725,0 1.52982,-0.0847 2.17336,-0.24275 0.64355,-0.15807 1.33788,-0.40081 2.08869,-0.72257 l 1.2024,7.63217 c -1.17418,0.59273 -2.5403,1.07257 -4.09834,1.44514 -1.5524,0.42902 -3.18384,0.64354 -4.89995,0.64354 -3.05399,0 -5.35719,-0.88063 -6.90959,-2.64755 -1.50159,-1.77255 -2.25239,-4.74188 -2.25239,-8.92489 l 0,-21.05056 -4.4201,0 0,-8.51845"
       id="path27"
       style="fill:#452768;fill-opacity:1;fill-rule:nonzero;stroke:none" />
    <path
       d="m 469.59939,179.62965 c 0,-1.98142 0.50805,-3.48303 1.52981,-4.49914 1.07257,-1.01611 2.46127,-1.52418 4.17738,-1.52418 1.87416,0 3.31931,0.50807 4.34107,1.52418 1.01612,1.01611 1.52418,2.51772 1.52418,4.49914 0,1.93062 -0.53628,3.43222 -1.60885,4.49914 -1.01613,1.07257 -2.43303,1.60885 -4.2564,1.60885 -1.76692,0 -3.16125,-0.53628 -4.17738,-1.60885 -1.02176,-1.06692 -1.52981,-2.56852 -1.52981,-4.49914"
       id="path29"
       style="fill:#452768;fill-opacity:1;fill-rule:nonzero;stroke:none" />
    <path
       d="m 511.13599,182.68364 c -1.3379,1.07257 -2.94675,1.87418 -4.82091,2.41046 -1.87418,0.53628 -3.74834,0.80724 -5.62252,0.80724 -2.73222,0 -5.03542,-0.48547 -6.9096,-1.45078 -1.82336,-1.01612 -3.32495,-2.43304 -4.50477,-4.2564 -1.17418,-1.87417 -2.03223,-4.09834 -2.56853,-6.6725 -0.48548,-2.62497 -0.72257,-5.54349 -0.72257,-8.75554 0,-7.0225 1.25887,-12.29502 3.77657,-15.8345 2.51771,-3.53382 6.21524,-5.30073 11.08697,-5.30073 2.41046,0 4.36931,0.2145 5.86525,0.64354 1.55805,0.42902 2.92416,0.96531 4.09834,1.6032 l -2.24675,7.95959 c -0.96532,-0.48548 -1.90239,-0.82983 -2.81126,-1.04435 -0.85805,-0.27096 -1.9024,-0.40644 -3.13868,-0.40644 -2.24673,0 -3.93462,0.99353 -5.058,2.97496 -1.12902,1.93062 -1.68787,5.06365 -1.68787,9.40473 0,3.64109 0.55885,6.61605 1.68787,8.91925 1.17418,2.30319 3.02577,3.45479 5.54349,3.45479 1.33788,0 2.46126,-0.16371 3.37577,-0.47984 0.96531,-0.37822 1.84594,-0.83546 2.64754,-1.3661 l 2.00966,7.38942"
       id="path31"
       style="fill:#452768;fill-opacity:1;fill-rule:nonzero;stroke:none" />
    <path
       d="m 512.98194,164.76612 c 0,-7.12411 1.39433,-12.4305 4.17736,-15.91352 2.78868,-3.48303 6.6725,-5.22171 11.65147,-5.22171 5.35721,0 9.34828,1.76691 11.97325,5.30073 2.62498,3.53948 3.94027,8.812 3.94027,15.8345 0,7.17491 -1.39433,12.50952 -4.17736,15.99255 -2.78868,3.42656 -6.70073,5.14267 -11.73616,5.14267 -10.55068,0 -15.82883,-7.04508 -15.82883,-21.13522 m 9.88455,0 c 0,4.01366 0.45161,7.1241 1.36612,9.32004 0.90885,2.19594 2.43868,3.29674 4.57816,3.29674 2.03789,0 3.53948,-0.93708 4.49915,-2.81689 1.02176,-1.92499 1.52982,-5.19349 1.52982,-9.79989 0,-4.12656 -0.45726,-7.25959 -1.36611,-9.40473 -0.90887,-2.1395 -2.4669,-3.21205 -4.66286,-3.21205 -1.87416,0 -3.34753,0.96531 -4.4201,2.89028 -1.01611,1.87417 -1.52418,5.12011 -1.52418,9.7265"
       id="path33"
       style="fill:#452768;fill-opacity:1;fill-rule:nonzero;stroke:none" />
    <path
       d="m 568.77804,184.85701 0,-23.38762 c 0,-3.37577 -0.27097,-5.70719 -0.80724,-6.98863 -0.53628,-1.34354 -1.58063,-2.00966 -3.13303,-2.00966 -1.28708,0 -2.354,0.42903 -3.21205,1.28144 -0.80726,0.80725 -1.42257,1.79514 -1.85159,2.97497 l 0,28.1295 -9.5628,0 0,-40.18179 7.39508,0 1.2024,4.82092 0.24274,0 c 1.01611,-1.65966 2.27496,-3.02577 3.77657,-4.09834 1.5524,-1.12337 3.59027,-1.68789 6.10799,-1.68789 2.08868,0 3.77656,0.45726 5.06365,1.36613 1.33789,0.90885 2.38222,2.5177 3.13302,4.8209 1.01612,-1.92498 2.35966,-3.42657 4.0193,-4.49914 1.65967,-1.12337 3.61286,-1.68789 5.86527,-1.68789 1.7669,0 3.26851,0.24274 4.49913,0.72257 1.28708,0.42904 2.3032,1.20806 3.054,2.33143 0.80161,1.12338 1.39433,2.68142 1.76692,4.66285 0.37822,1.92498 0.5645,4.39188 0.5645,7.38943 l 0,26.04082 -9.56279,0 0,-24.43197 c 0,-2.73223 -0.24273,-4.74188 -0.72257,-6.02897 -0.48547,-1.28142 -1.55239,-1.92497 -3.2177,-1.92497 -1.33789,0 -2.43303,0.40081 -3.29109,1.2024 -0.80726,0.75081 -1.39435,1.79514 -1.76692,3.13303 l 0,28.05048 -9.56279,0"
       id="path35"
       style="fill:#452768;fill-opacity:1;fill-rule:nonzero;stroke:none" />
    <path
       d="m 338.56546,262.22301 c -0.2766,0.0565 -0.4008,0.1863 -0.36693,0.39516 0.0338,0.21452 0.19193,0.28226 0.47418,0.21452 0.28226,-0.0734 0.40645,-0.19758 0.36694,-0.37257 -0.0338,-0.19194 -0.19193,-0.27097 -0.47419,-0.23711 z m 0,0"
       id="path37"
       style="fill:#000000;fill-opacity:1;fill-rule:nonzero;stroke:none" />
    <path
       d="m 337.06386,262.43753 c -0.27661,0 -0.41773,0.096 -0.41773,0.2879 0,0.22581 0.14677,0.32742 0.44596,0.28791 0.28225,0 0.42338,-0.096 0.42338,-0.28791 0,-0.2258 -0.15242,-0.32741 -0.45161,-0.2879 z m 0,0"
       id="path39"
       style="fill:#000000;fill-opacity:1;fill-rule:nonzero;stroke:none" />
    <path
       d="m 335.00906,262.3585 c -0.0678,0.19194 0.0451,0.32177 0.34435,0.39516 0.26531,0.10159 0.42902,0.0509 0.5024,-0.15806 0.0509,-0.19758 -0.0621,-0.33306 -0.34435,-0.42338 -0.26531,-0.0678 -0.42902,-0.0116 -0.5024,0.18628 z m 0,0"
       id="path41"
       style="fill:#000000;fill-opacity:1;fill-rule:nonzero;stroke:none" />
    <path
       d="m 362.21275,231.91451 c -1.48465,-1.47901 -3.27414,-2.22416 -5.36283,-2.22416 l -25.29002,0 c -2.08869,0 -3.87819,0.74515 -5.36284,2.22416 -1.47902,1.48466 -2.22416,3.27415 -2.22416,5.36285 l 0,25.29002 c 0,2.08868 0.74514,3.87817 2.22416,5.36283 1.48465,1.48467 3.27415,2.22417 5.36284,2.22417 l 5.89912,0 c 0.38951,0 0.67742,-0.0116 0.86935,-0.0394 0.19758,-0.0282 0.38951,-0.14119 0.58143,-0.34435 0.19195,-0.19758 0.28791,-0.49111 0.28791,-0.88062 0,-0.0509 0,-0.64919 -0.0116,-1.78951 -0.0116,-1.14594 -0.0116,-2.04916 -0.0116,-2.71528 l -0.60967,0.10723 c -0.38386,0.0678 -0.86934,0.10159 -1.46208,0.0903 -0.58709,-0.0116 -1.19676,-0.0678 -1.82901,-0.1863 -0.63225,-0.11286 -1.21934,-0.37822 -1.76692,-0.7903 -0.54193,-0.4121 -0.93144,-0.94838 -1.15724,-1.62015 l -0.26531,-0.60403 c -0.17501,-0.4008 -0.45161,-0.8524 -0.82983,-1.34352 -0.37823,-0.49113 -0.75645,-0.8242 -1.14596,-0.99919 l -0.18064,-0.13541 c -0.12414,-0.0847 -0.23709,-0.19193 -0.34435,-0.31612 -0.10723,-0.1185 -0.1863,-0.24274 -0.23709,-0.36694 -0.0509,-0.12414 -0.0116,-0.2258 0.12977,-0.30482 0.14119,-0.079 0.39516,-0.11851 0.76773,-0.11851 l 0.525,0.079 c 0.35,0.0734 0.78467,0.28225 1.30402,0.63225 0.51934,0.35565 0.94273,0.80726 1.27579,1.37176 0.40645,0.71693 0.89193,1.27016 1.46208,1.64838 0.57015,0.37257 1.14596,0.5645 1.7274,0.5645 0.58143,0 1.0782,-0.0451 1.50159,-0.12977 0.42338,-0.0903 0.81854,-0.22017 1.18546,-0.39516 0.15807,-1.17983 0.58709,-2.08305 1.29274,-2.7153 -1.00484,-0.10723 -1.9024,-0.26531 -2.70401,-0.47418 -0.79595,-0.20887 -1.62013,-0.55322 -2.47255,-1.02741 -0.85241,-0.47418 -1.55804,-1.06127 -2.12256,-1.76692 -0.5645,-0.69998 -1.02176,-1.62579 -1.38304,-2.76609 -0.36129,-1.14031 -0.54193,-2.45562 -0.54193,-3.95156 0,-2.12256 0.69435,-3.93464 2.08304,-5.42494 -0.64918,-1.59757 -0.58709,-3.39271 0.1863,-5.37413 0.50805,-0.15806 1.2645,-0.0394 2.26367,0.35563 0.99919,0.39516 1.73305,0.73388 2.20159,1.01613 0.46289,0.27661 0.83547,0.5137 1.11773,0.71128 1.63143,-0.45725 3.31931,-0.68871 5.05801,-0.68871 1.73868,0 3.42656,0.23146 5.058,0.68871 l 0.99917,-0.63225 c 0.68872,-0.42338 1.49596,-0.81289 2.4274,-1.16289 0.93144,-0.35 1.64272,-0.44596 2.13384,-0.2879 0.79032,1.98142 0.85805,3.77656 0.20887,5.37413 1.38869,1.4903 2.08304,3.30238 2.08304,5.42494 0,1.49594 -0.18064,2.8169 -0.54193,3.96849 -0.36128,1.14596 -0.82418,2.07175 -1.39433,2.7661 -0.57015,0.68871 -1.28144,1.2758 -2.13386,1.74998 -0.8524,0.47419 -1.67658,0.81854 -2.47819,1.02741 -0.79595,0.20887 -1.69917,0.36692 -2.69836,0.47418 0.91452,0.79032 1.36613,2.03789 1.36613,3.74271 l 0,6.29428 c 0,0.29919 0.0451,0.54193 0.13541,0.72257 0.0847,0.18628 0.2258,0.31048 0.41773,0.38386 0.19758,0.0678 0.36692,0.11287 0.51934,0.12977 0.14679,0.0169 0.36129,0.0282 0.64355,0.0282 l 5.89913,0 c 2.08868,0 3.87817,-0.7395 5.36282,-2.22417 1.48467,-1.48466 2.22418,-3.27415 2.22418,-5.36283 l 0,-25.29002 c 0,-2.0887 -0.73951,-3.87819 -2.22418,-5.36285 z m 0,0"
       id="path43"
       style="fill:#000000;fill-opacity:1;fill-rule:nonzero;stroke:none" />
    <path
       d="m 331.98329,259.1408 c -0.12414,0.0903 -0.10723,0.23145 0.0509,0.42338 0.175,0.17499 0.31612,0.20323 0.42338,0.079 0.12414,-0.0903 0.10159,-0.2258 -0.0565,-0.42338 -0.175,-0.15807 -0.31612,-0.18065 -0.41773,-0.079 z m 0,0"
       id="path45"
       style="fill:#000000;fill-opacity:1;fill-rule:nonzero;stroke:none" />
    <path
       d="m 331.11393,258.48597 c -0.0565,0.12414 0.006,0.22581 0.18064,0.31613 0.1412,0.0847 0.25968,0.0678 0.34435,-0.0565 0.0509,-0.1185 -0.006,-0.2258 -0.18628,-0.31612 -0.175,-0.0509 -0.2879,-0.0338 -0.33871,0.0565 z m 0,0"
       id="path47"
       style="fill:#000000;fill-opacity:1;fill-rule:nonzero;stroke:none" />
    <path
       d="m 332.79618,260.16821 c -0.15807,0.0903 -0.15807,0.24837 0,0.47418 0.15806,0.23145 0.31048,0.29355 0.45161,0.18629 0.15805,-0.12414 0.15805,-0.2879 0,-0.50242 -0.14119,-0.2258 -0.29355,-0.2766 -0.45161,-0.15805 z m 0,0"
       id="path49"
       style="fill:#000000;fill-opacity:1;fill-rule:nonzero;stroke:none" />
    <path
       d="m 333.72197,261.35367 c -0.15806,0.14119 -0.12414,0.31049 0.10723,0.50242 0.20887,0.20887 0.38386,0.23709 0.52499,0.079 0.14119,-0.14119 0.10159,-0.30484 -0.10723,-0.50242 -0.20887,-0.20886 -0.38386,-0.23709 -0.52499,-0.079 z m 0,0"
       id="path51"
       style="fill:#000000;fill-opacity:1;fill-rule:nonzero;stroke:none" />
    <path
       d="m 412.07588,231.91451 c -1.48466,-1.47901 -3.26852,-2.22416 -5.36285,-2.22416 l -25.29002,0 c -2.08868,0 -3.87252,0.74515 -5.35719,2.22416 -1.48466,1.48466 -2.22982,3.27415 -2.22982,5.36285 l 0,25.29002 c 0,2.08868 0.74516,3.87817 2.22982,5.36283 1.48467,1.48467 3.26851,2.22417 5.35719,2.22417 l 25.29002,0 c 2.09433,0 3.87819,-0.7395 5.36285,-2.22417 1.48465,-1.48466 2.22416,-3.27415 2.22416,-5.36283 l 0,-25.29002 c 0,-2.0887 -0.73951,-3.87819 -2.22416,-5.36285 z m -21.48524,21.95942 c -1.08949,1.0895 -2.4048,1.63707 -3.95156,1.63707 -1.54111,0 -2.86206,-0.54757 -3.95157,-1.63707 -1.08949,-1.08951 -1.63142,-2.40481 -1.63142,-3.95156 0,-1.54677 0.54193,-2.86207 1.63142,-3.95158 1.08951,-1.0895 2.41046,-1.63143 3.95157,-1.63143 1.54676,0 2.86207,0.54193 3.95156,1.63143 1.08951,1.08951 1.63709,2.40481 1.63709,3.95158 0,1.54675 -0.54758,2.86205 -1.63709,3.95156 z m 14.85789,0 c -1.08949,1.0895 -2.40481,1.63707 -3.95156,1.63707 -1.54111,0 -2.86206,-0.54757 -3.95157,-1.63707 -1.08949,-1.08951 -1.63142,-2.40481 -1.63142,-3.95156 0,-1.54677 0.54193,-2.86207 1.63142,-3.95158 1.08951,-1.0895 2.40482,-1.63143 3.95157,-1.63143 1.54675,0 2.86207,0.54193 3.95156,1.63143 1.08951,1.08951 1.63709,2.40481 1.63709,3.95158 0,1.54675 -0.54758,2.86205 -1.63709,3.95156 z m 0,0"
       id="path53"
       style="fill:#e6e6e6;fill-opacity:1;fill-rule:nonzero;stroke:none" />
    <path
       d="m 399.572,257.08034 c -2.0887,-0.41773 -4.02496,-1.94191 -4.96205,-3.91205 -0.24274,-0.5137 -0.5024,-1.18547 -0.57579,-1.50159 -0.18629,-0.80161 -0.15807,-2.58546 0.0507,-3.39836 0.64353,-2.48948 2.64191,-4.533 5.05236,-5.15961 1.58063,-0.41208 3.70882,-0.21452 5.02413,0.45161 1.7274,0.88628 3.09351,2.48949 3.68625,4.34672 0.34435,1.05563 0.38951,2.90159 0.10159,3.96851 -0.41773,1.53546 -1.52418,3.09915 -2.89029,4.0814 -1.51852,1.0895 -3.56204,1.50724 -5.48702,1.12337 z m 0,0"
       id="path55"
       style="fill:#e6e6e6;fill-opacity:1;fill-rule:nonzero;stroke:none" />
    <path
       d="m 385.93909,255.43762 c -0.0903,-0.0225 -0.35564,-0.079 -0.59838,-0.12414 -0.23709,-0.0451 -0.72257,-0.22581 -1.07257,-0.38951 -1.15724,-0.55887 -2.0661,-1.45078 -2.62496,-2.5911 -0.91452,-1.85159 -0.61532,-4.35801 0.71127,-5.91606 1.20805,-1.41127 2.529,-2.02093 4.36367,-2.00965 1.88545,0.0116 3.49995,0.90322 4.58946,2.52335 1.27014,1.90241 1.1403,4.60077 -0.31049,6.40154 -1.07821,1.34354 -2.43868,2.04353 -4.10398,2.11127 -0.43467,0.0169 -0.86934,0.0116 -0.95402,-0.006 z m 0,0"
       id="path57"
       style="fill:#e6e6e6;fill-opacity:1;fill-rule:nonzero;stroke:none" />
    <path
       d="m 383.9125,256.8376 c -2.08868,-0.41773 -4.02495,-1.94191 -4.96203,-3.91205 -0.24274,-0.50805 -0.50242,-1.18547 -0.5758,-1.49596 -0.1863,-0.80159 -0.15807,-2.58544 0.0507,-3.40397 0.64355,-2.4895 2.64191,-4.53302 5.05801,-5.15963 1.57499,-0.40645 3.70318,-0.2145 5.01849,0.45726 1.7274,0.88062 3.09352,2.48384 3.6919,4.34108 0.33869,1.05562 0.38385,2.90721 0.096,3.9685 -0.41773,1.54111 -1.52416,3.1048 -2.89029,4.0814 -1.51852,1.08949 -3.56204,1.51288 -5.48702,1.12337 z m 0,0"
       id="path59"
       style="fill:#e6e6e6;fill-opacity:1;fill-rule:nonzero;stroke:none" />
    <path
       d="m 392.41401,249.92237 c 0,3.3814 -2.6532,6.12492 -5.92734,6.12492 -3.27417,0 -5.933,-2.74352 -5.933,-6.12492 0,-3.38142 2.65883,-6.12494 5.933,-6.12494 3.27414,0 5.92734,2.74352 5.92734,6.12494 z m 0,0"
       id="path61"
       style="fill:#0057d4;fill-opacity:1;fill-rule:nonzero;stroke:none" />
    <path
       d="m 407.58239,249.84333 c 0,3.33625 -2.72658,6.04589 -6.0967,6.04589 -3.37014,0 -6.10236,-2.70964 -6.10236,-6.04589 0,-3.33626 2.73222,-6.0459 6.10236,-6.0459 3.37012,0 6.0967,2.70964 6.0967,6.0459 z m 0,0"
       id="path63"
       style="fill:#d91491;fill-opacity:1;fill-rule:nonzero;stroke:none" />
    <path
       d="m 312.34965,231.91451 c -1.48467,-1.47901 -3.27417,-2.22416 -5.36285,-2.22416 l -25.29002,0 c -2.08868,0 -3.87817,0.74515 -5.36284,2.22416 -1.48466,1.48466 -2.22417,3.27415 -2.22417,5.36285 l 0,25.29002 c 0,2.08868 0.73951,3.87817 2.22417,5.36283 1.48467,1.48467 3.27416,2.22417 5.36284,2.22417 l 25.29002,0 c 2.08868,0 3.87818,-0.7395 5.3572,-2.22417 1.48466,-1.48466 2.22981,-3.27415 2.22981,-5.36283 l 0,-25.29002 c 0,-2.0887 -0.74515,-3.87819 -2.22416,-5.36285 z m -7.28782,13.345 c 0.0169,0.15807 0.0282,0.39516 0.0282,0.71128 0,1.47337 -0.21452,2.95804 -0.64354,4.43704 -0.43467,1.48467 -1.08951,2.90723 -1.97579,4.2677 -0.88627,1.36611 -1.94756,2.56852 -3.17819,3.61286 -1.22497,1.04434 -2.70399,1.87982 -4.42575,2.50078 -1.71611,0.6266 -3.56205,0.93708 -5.53218,0.93708 -3.054,0 -5.8822,-0.82982 -8.47894,-2.47819 0.41773,0.0509 0.85805,0.079 1.31531,0.079 2.54593,0 4.83784,-0.79032 6.87572,-2.37094 -1.19111,-0.0169 -2.25803,-0.38386 -3.20077,-1.10643 -0.93708,-0.71694 -1.59192,-1.63144 -1.96449,-2.73787 0.45726,0.0678 0.80161,0.10159 1.02741,0.10159 0.38951,0 0.83547,-0.0678 1.34352,-0.20886 -1.28142,-0.2484 -2.35964,-0.88065 -3.24027,-1.90804 -0.87499,-1.02741 -1.31531,-2.20159 -1.31531,-3.51691 l 0,-0.0565 c 0.93144,0.44032 1.80643,0.67176 2.63626,0.6887 -1.59756,-1.07257 -2.39917,-2.60804 -2.39917,-4.61204 0,-0.98225 0.25403,-1.91368 0.76209,-2.79433 1.38869,1.70483 3.07657,3.0653 5.05801,4.08706 1.98707,1.01611 4.10963,1.58626 6.37895,1.71046 -0.0903,-0.33307 -0.13541,-0.75645 -0.13541,-1.2645 0,-1.52982 0.54193,-2.83385 1.62014,-3.91205 1.08386,-1.07821 2.38788,-1.62014 3.91205,-1.62014 1.62015,0 2.96368,0.58144 4.03061,1.73868 1.21368,-0.2258 2.39352,-0.67741 3.53382,-1.34353 -0.44032,1.35482 -1.25885,2.38223 -2.44997,3.08223 1.14031,-0.15807 2.20158,-0.45726 3.18383,-0.89758 -0.73386,1.12338 -1.65966,2.08304 -2.76609,2.87335 z m 0,0"
       id="path65"
       style="fill:#00abee;fill-opacity:0.94117599;fill-rule:nonzero;stroke:none" />
    <path
       d="m 218.40399,200.43747 0,15.02724 248.18091,0 0,-15.02724"
       id="path67"
       style="fill:none;stroke:#000000;stroke-width:2.14064503;stroke-linecap:butt;stroke-linejoin:miter;stroke-miterlimit:4;stroke-opacity:0.56620998" />
  </g>
</svg>
