
<svg width="900" height="400" xmlns="http://www.w3.org/2000/svg">
 <metadata id="metadata73">image/svg+xml</metadata>
 <defs>
  <clipPath id="clipPath3063">
   <rect width="160.46516" height="187.38884" x="124.38743" y="-115.83732" id="rect3065" fill="#ffffff"/>
  </clipPath>
 </defs>
 <g>
  <title>background</title>
  <rect x="-1" y="-1" width="902" height="402" id="canvas_background" fill="none"/>
 </g>
 <g>
  <title>Layer 1</title>
  <g id="svg_42">
   <path d="m99.78425,185.98393l-3.15018,0l0,23.2672l-13.37449,0l0,-78.67579l13.37449,0l0,46.41595l2.70016,-1.57115l9.32424,-22.36714l14.5035,0l-10.34273,22.24871l-4.83187,3.82129l5.2819,3.82127l11.46385,26.30686l-15.06406,0l-9.88481,-23.2672" id="path5" fill-rule="nonzero" fill="#452768" stroke="null"/>
   <path d="m129.69132,156.42426c2.25013,-1.35008 5.05293,-2.43171 8.42418,-3.26072c3.37915,-0.8211 7.20044,-1.23166 11.46385,-1.23166c6.37143,0 10.79275,1.64221 13.26396,4.94242c2.55014,3.29229 3.82127,7.98206 3.82127,14.04558c0,3.52125 -0.11049,7.01096 -0.33159,10.45325c-0.15002,3.37126 -0.26843,6.71093 -0.3395,10.00324c-0.07902,3.22124 -0.03944,6.37142 0.11049,9.44266c0.22895,2.99228 0.75004,5.84247 1.57114,8.54263l-10.89539,0l-2.1396,-6.86096l-0.45002,0c-1.20008,2.1791 -2.88176,3.97132 -5.05294,5.40035c-2.17908,1.42113 -4.91082,2.1317 -8.21102,2.1317c-4.42132,0 -7.90311,-1.46061 -10.45325,-4.38184c-2.54226,-3.0002 -3.82129,-6.97147 -3.82129,-11.91387c0,-6.74251 2.40014,-11.5349 7.20044,-14.38508c4.79239,-2.85018 11.27435,-4.05025 19.438,-3.60022c0.37897,-4.34237 0.07888,-7.49255 -0.90005,-9.43478c-0.90005,-1.95011 -2.88175,-2.92122 -5.95299,-2.92122c-2.25015,0 -4.57133,0.26056 -6.97147,0.78163c-2.39226,0.52898 -4.53186,1.27902 -6.40302,2.25013l-3.37126,-10.00324m16.06675,42.14464c2.02907,0 3.67917,-0.48951 4.9503,-1.4606c1.27113,-1.05008 2.21065,-2.1712 2.81069,-3.37126l0,-9.32424c-1.72904,-0.22896 -3.37125,-0.26846 -4.95029,-0.11846c-1.57116,0.14997 -2.95282,0.48951 -4.15288,1.01058c-1.20008,0.529 -2.17909,1.31062 -2.92124,2.36068c-0.67897,0.97902 -1.01847,2.25014 -1.01847,3.82129c0,2.32908 0.45003,4.08971 1.35008,5.2819c0.97901,1.20007 2.2896,1.80009 3.93181,1.80009" id="path7" fill-rule="nonzero" fill="#452768" stroke="null"/>
   <path d="m171.51224,153.053l6.18196,0l0,-10.56378l13.37448,-4.16077l0,14.72455l10.90328,0l0,11.91388l-10.90328,0l0,24.49885c0,3.22124 0.30002,5.51085 0.90006,6.85303c0.67109,1.35008 1.83168,2.02909 3.48179,2.02909c1.12113,0 2.1396,-0.11847 3.03177,-0.33951c0.90004,-0.22108 1.87905,-0.56058 2.92912,-1.01059l1.68167,10.67433c-1.6501,0.82899 -3.56074,1.50009 -5.73192,2.02117c-2.17118,0.60003 -4.4608,0.90005 -6.85304,0.90005c-4.27132,0 -7.49257,-1.23164 -9.67164,-3.70285c-2.09223,-2.47909 -3.14229,-6.63198 -3.14229,-12.48233l0,-29.44124l-6.18196,0l0,-11.91388" id="path9" fill-rule="nonzero" fill="#452768" stroke="null"/>
   <path d="m209.72507,153.053l13.37449,0l0,56.19813l-13.37449,0l0,-56.19813m-1.57116,-15.84568c0,-2.25014 0.71059,-4.08182 2.13172,-5.51085c1.42903,-1.5001 3.4502,-2.25014 6.07142,-2.25014c2.62119,0 4.72134,0.71846 6.29248,2.13961c1.57114,1.42112 2.36067,3.30019 2.36067,5.62138c0,2.3212 -0.78953,4.15289 -2.36067,5.50296c-1.57114,1.35008 -3.67129,2.02116 -6.29248,2.02116c-2.62122,0 -4.64239,-0.67108 -6.07142,-2.02116c-1.42113,-1.42113 -2.13172,-3.26072 -2.13172,-5.50296" id="path11" fill-rule="nonzero" fill="#452768" stroke="null"/>
   <path d="m271.8367,205.09033c-1.87907,1.65012 -4.42133,2.9923 -7.64256,4.04235c-3.22125,1.05008 -6.59251,1.57904 -10.11377,1.57904c-3.90024,0 -7.2715,-0.67897 -10.12166,-2.02905c-2.77124,-1.34218 -5.05294,-3.29232 -6.85306,-5.84247c-1.80009,-2.55015 -3.15018,-5.62138 -4.04235,-9.21369c-0.82897,-3.67129 -1.23954,-7.83206 -1.23954,-12.47444c0,-10.11377 1.98169,-17.57475 5.95298,-22.36713c4.05026,-4.87135 9.63217,-7.30307 16.74575,-7.30307c2.40015,0 4.72134,0.37107 6.97148,1.12112c2.25013,0.67109 4.23183,1.87117 5.96089,3.59232c1.79221,1.65011 3.22125,3.90024 4.2634,6.7504c1.12903,2.77122 1.68959,6.29247 1.68959,10.5638c0,1.6422 -0.11049,3.41073 -0.3395,5.2819c-0.14997,1.87115 -0.41054,3.89233 -0.78163,6.06352l-27.31743,0c0.14998,4.65028 1.12901,8.21102 2.92913,10.6822c1.7922,2.47121 4.68184,3.71076 8.65316,3.71076c2.39223,0 4.5713,-0.37897 6.51353,-1.12901c2.02907,-0.75005 3.56074,-1.53168 4.6108,-2.36068l4.16079,9.33213m-17.53528,-42.14462c-2.85016,0 -4.98187,1.1606 -6.403,3.48179c-1.42903,2.25014 -2.25014,5.4319 -2.47911,9.5532l15.51409,0c0.22107,-4.27131 -0.22897,-7.49255 -1.35007,-9.66374c-1.12113,-2.25013 -2.88177,-3.37125 -5.28191,-3.37125" id="path13" fill-rule="nonzero" fill="#452768" stroke="null"/>
   <path d="m346.26484,154.85312l7.4215,0l-4.38185,30.68078c-0.90004,6.81357 0.18938,10.2243 3.26073,10.2243c1.49219,0 2.95282,-0.45002 4.38185,-1.35008c1.50009,-0.89216 2.8107,-2.28172 3.9318,-4.15288c1.20007,-1.87117 2.13171,-4.27131 2.81071,-7.19254c0.75004,-2.92122 1.12112,-6.41091 1.12112,-10.45326c0,-5.17136 -0.75006,-9.59267 -2.24225,-13.26396c-1.42903,-3.74232 -3.4502,-6.78198 -6.07142,-9.10316c-2.6212,-2.40014 -5.73192,-4.1608 -9.33213,-5.2819c-3.59234,-1.12111 -7.52414,-1.68957 -11.79546,-1.68957c-4.80027,0 -9.29267,0.97899 -13.4929,2.92912c-4.12129,1.87117 -7.71363,4.53183 -10.78486,7.97416c-3.00018,3.45021 -5.39243,7.5715 -7.19254,12.3639c-1.72904,4.79239 -2.58963,10.11376 -2.58963,15.9641c0,11.46387 2.85016,20.18806 8.54262,26.18053c5.69246,6.00036 13.6745,8.99266 23.93828,8.99266c1.95011,0 4.08973,-0.26056 6.41091,-0.78164c2.39226,-0.52897 4.53184,-1.27901 6.40301,-2.25013l3.26072,9.77426c-2.40015,1.27903 -5.02134,2.21065 -7.86363,2.81071c-2.85017,0.67899 -6.07142,1.01058 -9.67163,1.01058c-5.91352,0 -11.46384,-0.90005 -16.63522,-2.69227c-5.0924,-1.80012 -9.5532,-4.57133 -13.37447,-8.32155c-3.82129,-3.67128 -6.85304,-8.35314 -9.10318,-14.04558c-2.17119,-5.77141 -3.25283,-12.59287 -3.25283,-20.45649c0,-7.86364 1.23165,-14.91407 3.70286,-21.1276c2.55016,-6.2214 5.92139,-11.46384 10.12166,-15.73514c4.19235,-4.2713 9.02422,-7.53203 14.49559,-9.78217c5.47141,-2.24223 11.2033,-3.37125 17.19579,-3.37125c5.69243,0 11.01382,0.86057 15.95621,2.58963c5.02136,1.65009 9.33215,4.15288 12.92446,7.52412c3.67128,3.3002 6.56092,7.46099 8.65315,12.48233c2.10013,4.94242 3.15019,10.71381 3.15019,17.3063c0,4.94242 -0.75004,9.55323 -2.25014,13.82453c-1.42113,4.19237 -3.37126,7.82414 -5.84244,10.90328c-2.47121,2.9923 -5.39243,5.35295 -8.76369,7.07412c-3.3002,1.72906 -6.82146,2.58963 -10.56379,2.58963c-3.07123,0 -5.70036,-0.78954 -7.87152,-2.36068c-2.10015,-1.57116 -3.07125,-4.31077 -2.92124,-8.20314l-0.33951,0c-1.72114,2.84229 -3.82126,5.3214 -6.29247,7.41362c-2.40014,2.10013 -5.35294,3.1502 -8.87421,3.1502c-3.22915,0 -5.96089,-1.42116 -8.21102,-4.27132c-2.24224,-2.85017 -3.37126,-6.82146 -3.37126,-11.91386c0,-5.02137 0.60003,-9.74271 1.80011,-14.16403c1.27113,-4.42131 2.96071,-8.27418 5.06083,-11.57436c2.09223,-3.37127 4.53186,-6.03194 7.30307,-7.98208c2.77122,-1.94221 5.73193,-2.92122 8.88211,-2.92122c2.09223,0 3.89234,0.37898 5.39243,1.12901c1.50009,0.75006 2.88175,1.76065 4.16079,3.03176l2.80278,-3.48178m-5.95298,12.92447c-1.35008,-1.57905 -3.11071,-2.36067 -5.2819,-2.36067c-1.72114,0 -3.30019,0.63161 -4.72134,1.91064c-1.42113,1.20006 -2.66067,2.84227 -3.71073,4.94239c-1.05008,2.02117 -1.87119,4.38184 -2.47121,7.08202c-0.60004,2.62121 -0.90006,5.35295 -0.90006,8.2031c0,2.62123 0.41055,4.65031 1.23955,6.07144c0.90006,1.42114 2.25014,2.1317 4.04235,2.1317c1.6501,0 3.3002,-0.90004 4.95031,-2.69226c1.72114,-1.87907 3.14227,-3.93971 4.2713,-6.18197l2.58173,-19.10639" id="path15" fill-rule="nonzero" fill="#452768" stroke="null"/>
   <path d="m427.62499,209.25113c0,8.16363 -1.87117,14.15609 -5.62139,17.97739c-3.75023,3.90024 -8.95318,5.84244 -15.62462,5.84244c-4.64238,0 -8.27419,-0.37107 -10.9033,-1.1211c-2.62119,-0.6711 -4.64236,-1.42115 -6.06352,-2.25013l2.81071,-11.34545c1.6422,0.67112 3.40283,1.31061 5.2819,1.91067c1.9422,0.59214 4.23183,0.89214 6.85302,0.89214c3.82131,0 6.4425,-1.04215 7.87153,-3.14227c1.49219,-2.02119 2.24225,-5.13192 2.24225,-9.33216l0,-3.03175l-0.3316,0c-1.05008,1.5001 -2.47911,2.6212 -4.27131,3.37125c-1.72905,0.75004 -3.97129,1.12112 -6.7504,1.12112c-5.91352,0 -10.3743,-2.21067 -13.3745,-6.62408c-2.92122,-4.50027 -4.38185,-11.58228 -4.38185,-21.24602c0,-10.41378 2.02909,-18.09581 6.07144,-23.03821c4.12128,-4.9503 9.96375,-7.4215 17.53525,-7.4215c4.04235,0 7.67416,0.33949 10.90328,1.01058c3.22125,0.60004 5.80301,1.35008 7.75311,2.25013l0,54.17695m-20.79599,-10.57169c2.02119,0 3.60023,-0.48161 4.72134,-1.46063c1.20008,-0.97111 2.10012,-2.36065 2.70015,-4.15286l0,-28.09907c-0.82898,-0.37897 -1.76062,-0.67898 -2.81068,-0.90006c-0.97111,-0.22895 -2.13961,-0.33949 -3.48179,-0.33949c-2.77912,0 -4.95031,1.35009 -6.52145,4.05025c-1.50009,2.69227 -2.25013,7.34254 -2.25013,13.93505c0,11.31385 2.55016,16.96681 7.64256,16.96681" id="path17" fill-rule="nonzero" fill="#452768" stroke="null"/>
   <path d="m450.81322,191.03686c0,2.62911 0.26844,4.50027 0.78953,5.6214c0.52107,1.129 1.38954,1.68959 2.58174,1.68959c0.67897,0 1.35006,-0.07902 2.02905,-0.22897c0.75007,-0.14997 1.57116,-0.41056 2.47121,-0.78163l1.23165,10.78484c-0.89215,0.60006 -2.43171,1.1606 -4.60291,1.68958c-2.17118,0.52109 -4.38183,0.78163 -6.63196,0.78163c-3.75024,0 -6.56092,-0.93163 -8.4321,-2.81069c-1.87117,-1.87118 -2.81069,-5.05293 -2.81069,-9.55321l0,-67.65406l13.37448,0l0,60.46152" id="path19" fill-rule="nonzero" fill="#452768" stroke="null"/>
   <path d="m464.55088,156.42426c2.24226,-1.35008 5.05294,-2.43171 8.4242,-3.26072c3.37126,-0.8211 7.19252,-1.23166 11.46385,-1.23166c6.37144,0 10.79275,1.64221 13.26396,4.94242c2.55013,3.29229 3.82127,7.98206 3.82127,14.04558c0,3.52125 -0.11049,7.01096 -0.33949,10.45325c-0.14997,3.37126 -0.26053,6.71093 -0.3316,10.00324c-0.07902,3.22124 -0.03944,6.37142 0.11049,9.44266c0.22105,2.99228 0.75004,5.84247 1.57115,8.54263l-10.9033,0l-2.13171,-6.86096l-0.45001,0c-1.20007,2.1791 -2.88177,3.97132 -5.06084,5.40035c-2.17118,1.42113 -4.90292,2.1317 -8.20312,2.1317c-4.42131,0 -7.90311,-1.46061 -10.45327,-4.38184c-2.54224,-3.0002 -3.82127,-6.97147 -3.82127,-11.91387c0,-6.74251 2.40014,-11.5349 7.19253,-14.38508c4.8003,-2.85018 11.28226,-4.05025 19.4459,-3.60022c0.37898,-4.34237 0.07902,-7.49255 -0.90005,-9.43478c-0.90004,-1.95011 -2.88174,-2.92122 -5.95298,-2.92122c-2.25013,0 -4.57134,0.26056 -6.97147,0.78163c-2.39225,0.52898 -4.53186,1.27902 -6.40303,2.25013l-3.37128,-10.00324m16.06676,42.14464c2.02907,0 3.67128,-0.48951 4.95031,-1.4606c1.27113,-1.05008 2.21065,-2.1712 2.81068,-3.37126l0,-9.32424c-1.72903,-0.22896 -3.37124,-0.26846 -4.95028,-0.11846c-1.57116,0.14997 -2.96072,0.48951 -4.15288,1.01058c-1.20008,0.529 -2.1791,1.31062 -2.92913,2.36068c-0.6711,0.97902 -1.0106,2.25014 -1.0106,3.82129c0,2.32908 0.45004,4.08971 1.3501,5.2819c0.97899,1.20007 2.2896,1.80009 3.9318,1.80009" id="path21" fill-rule="nonzero" fill="#452768" stroke="null"/>
   <path d="m529.63901,194.29759c0,-1.57114 -0.52898,-2.88175 -1.57903,-3.93181c-0.97112,-1.12112 -2.24226,-2.13172 -3.8213,-3.03176c-1.57114,-0.97901 -3.26072,-1.95012 -5.05294,-2.92122c-1.72904,-0.97902 -3.37125,-2.1791 -4.95029,-3.60022c-1.57114,-1.42115 -2.88175,-3.1502 -3.93182,-5.17137c-0.9711,-2.02118 -1.46061,-4.57133 -1.46061,-7.64256c0,-5.24244 1.42114,-9.29266 4.27131,-12.13493c2.85016,-2.85019 7.04253,-4.27132 12.58497,-4.27132c3.3002,0 6.4109,0.37108 9.33215,1.12111c2.92122,0.679 5.24242,1.53957 6.96357,2.58962l-3.14231,10.33484c-1.42903,-0.60003 -3.15017,-1.16057 -5.17135,-1.68168c-2.02117,-0.60002 -4.01077,-0.90005 -5.953,-0.90005c-3.67917,0 -5.51085,1.53167 -5.51085,4.60291c0,1.42904 0.48951,2.62911 1.46062,3.60021c1.05006,0.90007 2.36067,1.80012 3.93181,2.70016c1.57904,0.90005 3.22125,1.8317 4.9503,2.8107c1.79221,0.97112 3.4818,2.20277 5.05294,3.70286c1.57113,1.42903 2.85017,3.18965 3.82126,5.2819c1.05008,2.10012 1.57117,4.68186 1.57904,7.76098c-0.00839,5.16348 -1.57904,9.32424 -4.72131,12.47445c-3.1502,3.14227 -7.83206,4.72131 -14.05349,4.72131c-3.07124,0 -6.10299,-0.37896 -9.10316,-1.129c-2.92125,-0.75004 -5.28191,-1.72116 -7.08202,-2.92122l3.71076,-10.78486c1.57114,0.89216 3.37126,1.68167 5.39243,2.35276c2.10012,0.67899 4.27131,1.01849 6.52144,1.01849c1.72114,0 3.15018,-0.37897 4.2713,-1.12901c1.12113,-0.8211 1.68958,-2.09224 1.68958,-3.82128" id="path23" fill-rule="nonzero" fill="#452768" stroke="null"/>
   <path d="m577.91824,209.25113l0,-34.17048c0,-4.12129 -0.48951,-7.00304 -1.46063,-8.65315c-0.97111,-1.6501 -2.62122,-2.47121 -4.9424,-2.47121c-1.95012,0 -3.63968,0.60004 -5.06084,1.79222c-1.42113,1.20007 -2.43171,2.70016 -3.03175,4.50027l0,39.00235l-13.3745,0l0,-56.19813l10.67433,0l1.57115,6.52145l0.33951,0c1.35005,-2.17907 3.18175,-4.01076 5.51085,-5.51085c2.32119,-1.57114 5.35295,-2.36068 9.10316,-2.36068c2.24226,0 4.23183,0.3395 5.953,1.01058c1.80011,0.67901 3.3002,1.80012 4.50027,3.37127c1.19217,1.50009 2.09224,3.56074 2.69227,6.18196c0.60004,2.55013 0.90005,5.73191 0.90005,9.5532l0,37.4312l-13.37447,0" id="path25" fill-rule="nonzero" fill="#452768" stroke="null"/>
   <path d="m596.14828,153.053l6.18193,0l0,-10.56378l13.37449,-4.16077l0,14.72455l10.90329,0l0,11.91388l-10.90329,0l0,24.49885c0,3.22124 0.30003,5.51085 0.90005,6.85303c0.679,1.35008 1.83959,2.02909 3.4818,2.02909c1.12901,0 2.1396,-0.11847 3.03965,-0.33951c0.90007,-0.22108 1.87116,-0.56058 2.92124,-1.01059l1.68167,10.67433c-1.6422,0.82899 -3.55286,1.50009 -5.73192,2.02117c-2.17119,0.60003 -4.45291,0.90005 -6.85306,0.90005c-4.2713,0 -7.49255,-1.23164 -9.66373,-3.70285c-2.10012,-2.47909 -3.15019,-6.63198 -3.15019,-12.48233l0,-29.44124l-6.18193,0l0,-11.91388" id="path27" fill-rule="nonzero" fill="#452768" stroke="null"/>
   <path d="m638.69556,201.94016c0,-2.77121 0.71056,-4.87136 2.13959,-6.29249c1.50009,-1.42113 3.44232,-2.13171 5.84247,-2.13171c2.6212,0 4.64238,0.71059 6.07141,2.13171c1.42114,1.42113 2.13171,3.52128 2.13171,6.29249c0,2.70016 -0.75004,4.80029 -2.25013,6.29248c-1.42116,1.50009 -3.40283,2.25013 -5.95299,2.25013c-2.47121,0 -4.42131,-0.75004 -5.84247,-2.25013c-1.42903,-1.49219 -2.13959,-3.59232 -2.13959,-6.29248" id="path29" fill-rule="nonzero" fill="#452768" stroke="null"/>
   <path d="m696.78852,206.21146c-1.87118,1.50009 -4.12131,2.62122 -6.74251,3.37126c-2.62122,0.75004 -5.24242,1.129 -7.86364,1.129c-3.82127,0 -7.04252,-0.67897 -9.66374,-2.02905c-2.55015,-1.42115 -4.65027,-3.40285 -6.30036,-5.95299c-1.6422,-2.62121 -2.84227,-5.73193 -3.59234,-9.33214c-0.67899,-3.67127 -1.01058,-7.75311 -1.01058,-12.24547c0,-9.82165 1.76065,-17.19578 5.2819,-22.14608c3.52126,-4.94239 8.69261,-7.41359 15.5062,-7.41359c3.37126,0 6.1109,0.3 8.20312,0.90006c2.17908,0.60002 4.08972,1.35008 5.73192,2.24223l-3.14229,11.13226c-1.3501,-0.679 -2.66068,-1.1606 -3.93182,-1.46063c-1.20007,-0.37896 -2.66069,-0.56845 -4.38975,-0.56845c-3.14227,0 -5.50295,1.38955 -7.0741,4.16077c-1.57905,2.70016 -2.36065,7.08201 -2.36065,13.15343c0,5.09242 0.7816,9.25319 2.36065,12.47444c1.6422,3.22123 4.23183,4.83185 7.7531,4.83185c1.87116,0 3.44231,-0.22896 4.72135,-0.6711c1.35008,-0.52898 2.58172,-1.16847 3.70284,-1.91062l2.8107,10.33482" id="path31" fill-rule="nonzero" fill="#452768" stroke="null"/>
   <path d="m699.37026,181.15207c0,-9.96376 1.95011,-17.38526 5.84245,-22.2566c3.90023,-4.87135 9.33213,-7.30307 16.2957,-7.30307c7.49258,0 13.07448,2.4712 16.74575,7.41359c3.67129,4.9503 5.51085,12.32443 5.51085,22.14608c0,10.03481 -1.9501,17.49578 -5.84244,22.36713c-3.90024,4.79238 -9.37162,7.19252 -16.41416,7.19252c-14.75614,0 -22.13815,-9.85322 -22.13815,-29.55965m13.8245,0c0,5.61349 0.63162,9.96374 1.91065,13.03498c1.27112,3.07123 3.41073,4.61081 6.403,4.61081c2.85019,0 4.95031,-1.3106 6.2925,-3.93969c1.42903,-2.69229 2.1396,-7.2636 2.1396,-13.7061c0,-5.77139 -0.63952,-10.15324 -1.91063,-13.15343c-1.27115,-2.99229 -3.4502,-4.49236 -6.52147,-4.49236c-2.62119,0 -4.68184,1.35008 -6.18193,4.04234c-1.42113,2.62121 -2.13172,7.16097 -2.13172,13.60345" id="path33" fill-rule="nonzero" fill="#452768" stroke="null"/>
   <path d="m777.40651,209.25113l0,-32.70986c0,-4.72134 -0.37898,-7.98206 -1.129,-9.77427c-0.75004,-1.87907 -2.21066,-2.81071 -4.38185,-2.81071c-1.8001,0 -3.29229,0.60004 -4.49236,1.79222c-1.12903,1.12902 -1.9896,2.51068 -2.58963,4.16079l0,39.34183l-13.3745,0l0,-56.19813l10.34274,0l1.68167,6.74252l0.33949,0c1.42113,-2.32119 3.18176,-4.23183 5.2819,-5.73192c2.17119,-1.57114 5.02134,-2.36068 8.54262,-2.36068c2.92122,0 5.28188,0.63952 7.082,1.91067c1.87117,1.27111 3.33177,3.52124 4.38184,6.74249c1.42114,-2.69227 3.30021,-4.79239 5.62138,-6.29248c2.32121,-1.57114 5.05293,-2.36068 8.20314,-2.36068c2.47119,0 4.57133,0.3395 6.29247,1.01058c1.80011,0.60006 3.22125,1.68959 4.27132,3.26074c1.12113,1.57115 1.9501,3.75022 2.47121,6.52144c0.52897,2.69227 0.78951,6.14247 0.78951,10.33484l0,36.42061l-13.37449,0l0,-34.17048c0,-3.82129 -0.33948,-6.63198 -1.01059,-8.4321c-0.67897,-1.79219 -2.17116,-2.69226 -4.50026,-2.69226c-1.87117,0 -3.40283,0.56058 -4.60291,1.68168c-1.12903,1.05008 -1.95013,2.51067 -2.47121,4.38184l0,39.23132l-13.37449,0" id="path35" fill-rule="nonzero" fill="#452768" stroke="null"/>
  </g>
  <path d="m280.94751,230.0419l0,21.01705l352.10509,0l0,-21.01705" id="path67" stroke-opacity="0.56621" stroke-miterlimit="4" stroke-width="2.14065" fill="none" stroke="#000000"/>
  <g id="svg_16" stroke="null">
   <g transform="matrix(0.013654113465868277,0,0,-0.013633860168861808,590.8982027998619,419.45444223484) " id="svg_10" fill="#000000" stroke="null">
    <path d="m-11525.23862,10378.59355l-3,-508l-48,-3c-27,-2 -55,2 -63,9c-12,10 -14,90 -14,500c0,555 10,502 -90,471l-55,-18l-5,-479l-5,-480l-53,-3c-31,-2 -60,2 -68,9c-12,10 -14,82 -14,435c0,390 -1,424 -17,424c-9,0 -60,-44 -114,-98c-86,-87 -103,-111 -147,-203c-84,-172 -85,-176 -89,-571l-5,-348l671,0c369,0 671,4 671,8c0,13 119,107 191,150c87,53 188,95 295,123c131,34 340,33 475,-3c160,-43 317,-124 436,-225l62,-53l666,0l667,0l-4,353c-4,329 -6,357 -27,427c-42,142 -93,224 -215,346c-122,121 -203,172 -346,216l-75,23l-1197,3l-1198,3l-2,-508l-3,-508l-48,-3c-27,-2 -55,2 -63,9c-12,10 -14,91 -14,510l0,499l-75,0l-75,0l-2,-507zm2872,122c17,-9 39,-33 50,-55c18,-36 20,-59 20,-277c0,-344 11,-333 -329,-333c-258,0 -289,7 -322,72c-19,37 -20,55 -17,289l3,251l37,34l38,34l245,0c201,0 251,-3 275,-15z" id="svg_13" fill="#4c4c4c" stroke="null"/>
    <path d="m-10368.23862,9608.59355c-352,-49 -638,-331 -695,-686c-17,-103 -8,-270 20,-367c39,-137 92,-223 210,-340c117,-118 193,-167 312,-205c468,-148 948,112 1069,580c27,104 29,300 5,395c-44,171 -98,264 -231,395c-129,129 -240,187 -413,221c-69,13 -207,17 -277,7zm220,-248c78,-16 234,-90 280,-133c81,-75 147,-183 181,-298c25,-82 22,-218 -5,-304c-76,-241 -306,-413 -551,-413c-90,0 -159,18 -260,66c-195,92 -323,297 -323,517c-1,269 194,506 464,564c84,19 129,19 214,1z" id="svg_12" fill="#4c4c4c" stroke="null"/>
    <path d="m-12311.23862,8408.59355l3,-1008l23,-75c44,-143 95,-224 216,-346c124,-123 207,-174 352,-216l79,-23l1385,0l1385,0l79,23c159,46 270,115 389,242c83,88 151,206 189,330l23,75l3,1003l3,1002l-616,0c-536,0 -615,-2 -615,-15c0,-8 16,-40 36,-70c189,-297 208,-678 50,-994c-162,-322 -460,-529 -823,-571c-292,-34 -630,92 -840,314c-84,88 -131,158 -193,289c-73,151 -94,249 -94,427c0,117 4,162 22,234c26,105 74,219 125,299c20,32 37,64 37,72c0,13 -78,15 -610,15l-611,0l3,-1007z" id="svg_11" fill="#4c4c4c" stroke="null"/>
   </g>
  </g>
  <path d="m509.10435,316.45496c-0.38685,0.07902 -0.56055,0.26056 -0.51318,0.55267c0.04727,0.30003 0.26843,0.39477 0.66318,0.30003c0.39477,-0.10266 0.56846,-0.27634 0.5132,-0.52108c-0.04727,-0.26844 -0.26843,-0.37898 -0.6632,-0.33162zm0,0" id="svg_17" fill-rule="nonzero" fill="#4c4c4c" stroke="null"/>
  <path d="m507.00422,316.75499c-0.38686,0 -0.58423,0.13426 -0.58423,0.40265c0,0.31582 0.20527,0.45793 0.62372,0.40268c0.39475,0 0.59213,-0.13427 0.59213,-0.40268c0,-0.3158 -0.21317,-0.45791 -0.63162,-0.40265zm0,0" id="svg_18" fill-rule="nonzero" fill="#4c4c4c" stroke="null"/>
  <path d="m504.13038,316.64446c-0.09482,0.26844 0.06308,0.45002 0.48161,0.55267c0.37106,0.14208 0.60003,0.07118 0.70266,-0.22107c0.07118,-0.27633 -0.08686,-0.46581 -0.48161,-0.59213c-0.37106,-0.09483 -0.60003,-0.01623 -0.70266,0.26053zm0,0" id="svg_19" fill-rule="nonzero" fill="#4c4c4c" stroke="null"/>
  <path d="m541.55365,274.06559c-2.07642,-2.06854 -4.5792,-3.1107 -7.50043,-3.1107l-35.37055,0c-2.92123,0 -5.42402,1.04216 -7.50045,3.1107c-2.06855,2.07644 -3.1107,4.57921 -3.1107,7.50047l0,35.37054c0,2.92122 1.04215,5.42399 3.1107,7.50043c2.07643,2.07646 4.57922,3.11072 7.50045,3.11072l8.2505,0c0.54476,0 0.94743,-0.01622 1.21587,-0.0551c0.27633,-0.03944 0.54476,-0.19747 0.81318,-0.48161c0.26846,-0.27633 0.40267,-0.68686 0.40267,-1.23163c0,-0.07119 0,-0.90796 -0.01622,-2.5028c-0.01623,-1.60271 -0.01623,-2.86595 -0.01623,-3.79759l-0.85268,0.14997c-0.53686,0.09483 -1.21585,0.14209 -2.04486,0.1263c-0.8211,-0.01623 -1.67378,-0.09483 -2.55805,-0.26056c-0.88426,-0.15785 -1.70536,-0.52898 -2.47121,-1.10531c-0.75794,-0.57636 -1.3027,-1.3264 -1.61851,-2.26594l-0.37106,-0.84479c-0.24477,-0.56056 -0.63162,-1.19217 -1.1606,-1.87904c-0.52899,-0.6869 -1.05797,-1.15273 -1.60273,-1.39747l-0.25264,-0.18938c-0.17363,-0.11846 -0.3316,-0.26844 -0.48161,-0.44213c-0.14997,-0.16573 -0.26056,-0.33949 -0.33159,-0.5132c-0.07119,-0.17362 -0.01623,-0.3158 0.18149,-0.42632c0.19747,-0.11049 0.55267,-0.16575 1.07374,-0.16575l0.73427,0.11049c0.48951,0.10266 1.09743,0.39476 1.8238,0.88427c0.72634,0.49741 1.31849,1.12903 1.78431,1.91853c0.56846,1.0027 1.24745,1.77645 2.04486,2.30542c0.79741,0.52108 1.60274,0.78951 2.41594,0.78951c0.81319,0 1.50797,-0.06307 2.10012,-0.18149c0.59214,-0.1263 1.14481,-0.30793 1.65798,-0.55267c0.22107,-1.65011 0.8211,-2.91335 1.80802,-3.79761c-1.40537,-0.14998 -2.66069,-0.37106 -3.78182,-0.66319c-1.11321,-0.29213 -2.26591,-0.77373 -3.4581,-1.43693c-1.19218,-0.66319 -2.17907,-1.48429 -2.96861,-2.47121c-0.78951,-0.97899 -1.42903,-2.27383 -1.93431,-3.86865c-0.5053,-1.59483 -0.75794,-3.43442 -0.75794,-5.52663c0,-2.96861 0.97111,-5.50298 2.91333,-7.58731c-0.90794,-2.23436 -0.8211,-4.74503 0.26056,-7.51624c0.71055,-0.22106 1.76852,-0.0551 3.16596,0.49738c1.39746,0.55267 2.42384,1.02641 3.07914,1.42116c0.64739,0.38687 1.16848,0.71846 1.56325,0.99479c2.28171,-0.63951 4.64238,-0.96322 7.07412,-0.96322c2.43171,0 4.79237,0.32371 7.0741,0.96322l1.39743,-0.88426c0.96325,-0.59214 2.09225,-1.1369 3.39496,-1.62641c1.30271,-0.48951 2.2975,-0.62372 2.98438,-0.40266c1.10534,2.77121 1.20007,5.28188 0.29213,7.51624c1.94221,2.08433 2.91333,4.6187 2.91333,7.58731c0,2.09221 -0.25264,3.9397 -0.75794,5.55031c-0.50529,1.60274 -1.1527,2.89755 -1.95011,3.86866c-0.79741,0.96323 -1.79222,1.78433 -2.98441,2.44752c-1.19216,0.6632 -2.34486,1.1448 -3.46599,1.43693c-1.11321,0.29213 -2.37645,0.51317 -3.77392,0.66319c1.27905,1.10534 1.91067,2.85018 1.91067,5.23454l0,8.80316c0,0.41845 0.06308,0.75794 0.18938,1.01058c0.11846,0.26053 0.31581,0.43424 0.58424,0.53687c0.27634,0.09482 0.51317,0.15786 0.72635,0.18149c0.2053,0.02364 0.5053,0.03944 0.90006,0.03944l8.25051,0c2.92122,0 5.424,-1.03426 7.50042,-3.11071c2.07646,-2.07644 3.11073,-4.57922 3.11073,-7.50044l0,-35.37054c0,-2.92125 -1.03427,-5.42403 -3.11073,-7.50047l0.00105,-0.00018zm0,0" id="svg_20" fill-rule="nonzero" fill="#4c4c4c" stroke="null"/>
  <path d="m499.89855,312.14419c-0.17362,0.1263 -0.14997,0.32371 0.07119,0.59214c0.24476,0.24474 0.44213,0.28424 0.59214,0.11049c0.17362,-0.12629 0.14208,-0.3158 -0.07902,-0.59214c-0.24476,-0.22107 -0.44213,-0.25265 -0.58424,-0.11049l-0.00007,0zm0,0" id="svg_21" fill-rule="nonzero" fill="#4c4c4c" stroke="null"/>
  <path d="m498.68267,311.22835c-0.07902,0.17362 0.00839,0.31581 0.25264,0.44214c0.19748,0.11846 0.36319,0.09482 0.48161,-0.07902c0.07119,-0.16574 -0.00839,-0.31581 -0.26053,-0.44213c-0.24476,-0.07119 -0.40266,-0.04727 -0.47372,0.07902l0,-0.00001zm0,0" id="svg_22" fill-rule="nonzero" fill="#4c4c4c" stroke="null"/>
  <path d="m501.03546,313.58112c-0.22108,0.1263 -0.22108,0.34737 0,0.66319c0.22106,0.32371 0.43423,0.41056 0.63162,0.26055c0.22105,-0.17363 0.22105,-0.40266 0,-0.70269c-0.19747,-0.3158 -0.41056,-0.38685 -0.63162,-0.22105zm0,0" id="svg_23" fill-rule="nonzero" fill="#4c4c4c" stroke="null"/>
  <path d="m502.33027,315.2391c-0.22107,0.19747 -0.17363,0.43426 0.14997,0.70269c0.29212,0.29212 0.53686,0.33159 0.73425,0.11049c0.19746,-0.19747 0.14208,-0.42635 -0.14998,-0.70268c-0.29212,-0.29212 -0.53686,-0.3316 -0.73424,-0.1105zm0,0" id="svg_24" fill-rule="nonzero" fill="#4c4c4c" stroke="null"/>
  <g fill="#4c4c4c" stroke="null">
   <path stroke="null" d="m384.8535,271.01576c-7.13956,0.02896 -14.22849,0.93539 -17.91705,2.63607c0,0 -7.93594,3.61263 -7.93594,15.91806c0,14.64786 -0.01064,33.04306 13.14809,36.60043c5.03941,1.3544 9.37314,1.64592 12.85724,1.445c6.3229,-0.35692 9.4502,-2.29445 9.4502,-2.29445l-0.21235,-4.672c0,0 -4.09833,1.44425 -9.17319,1.27879c-5.02759,-0.17728 -10.32418,-0.55457 -11.14911,-6.83256c-0.07564,-0.58383 -0.11315,-1.175 -0.11079,-1.76356c10.65318,2.64498 19.73738,1.15202 22.23818,0.84947c6.98237,-0.84857 13.06066,-5.22685 13.83595,-9.2286c1.21494,-6.30636 1.11262,-15.38252 1.11262,-15.38252c0,-12.30543 -7.92211,-15.91806 -7.92211,-15.91806c-3.88947,-1.8165 -11.08217,-2.66503 -18.22173,-2.63607zm-7.64048,9.38555c2.44612,0.06559 4.86332,1.15999 6.35245,3.47169l1.44037,2.44681l1.43578,-2.44681c2.99008,-4.6494 9.69167,-4.35928 12.88031,-0.76173c2.94044,3.42264 2.28523,5.63166 2.28523,20.92245l0,0.00461l-5.78459,0l0,-13.30504c0,-6.22835 -7.94057,-6.46891 -7.94057,0.86329l0,7.70973l-5.74767,0l0,-7.70973c0,-7.3322 -7.93594,-7.09628 -7.93594,-0.86793l0,13.30506l-5.79847,0c0,-15.3026 -0.6434,-17.52581 2.28523,-20.92245c1.60614,-1.8106 4.08173,-2.77555 6.52788,-2.70996z"/>
  </g>
 </g>
</svg>