<svg width="900" height="400" xmlns="http://www.w3.org/2000/svg">
 <metadata id="metadata73">image/svg+xml</metadata>
 <defs>
  <clipPath id="clipPath3063">
   <rect fill="#ffffff" id="rect3065" y="-115.83732" x="124.38743" height="187.38884" width="160.46516"/>
  </clipPath>
 </defs>
 <g>
  <title>background</title>
  <rect fill="none" id="canvas_background" height="402" width="902" y="-1" x="-1"/>
 </g>
 <g>
  <title>Layer 1</title>

  <metadata transform="matrix(7.111152225129956,0,0,7.111152225129956,0,0) " id="svg_14">Created by potrace 1.12, written by Peter Selinger 2001-2015image/svg+xmlInstagram icon</metadata>
  <g id="svg_44">
   <g id="svg_42">
    <path stroke="null" fill="#452768" fill-rule="nonzero" id="path5" d="m99.784253,185.983928l-3.150186,0l0,23.267197l-13.374488,0l0,-78.675786l13.374488,0l0,46.415947l2.700159,-1.571142l9.324249,-22.367144l14.503491,0l-10.342722,22.248711l-4.831872,3.821288l5.281899,3.821274l11.463851,26.306852l-15.064063,0l-9.884807,-23.267197"/>
    <path stroke="null" fill="#452768" fill-rule="nonzero" id="path7" d="m129.691317,156.424262c2.250133,-1.35008 5.052935,-2.431712 8.424182,-3.260717c3.37915,-0.821102 7.200438,-1.23166 11.463851,-1.23166c6.371434,0 10.792748,1.642204 13.263957,4.942418c2.550146,3.292283 3.821274,7.982058 3.821274,14.045577c0,3.521247 -0.110489,7.010956 -0.331593,10.453253c-0.150013,3.371262 -0.268433,6.710929 -0.339495,10.00324c-0.079021,3.221234 -0.03944,6.37142 0.110489,9.442655c0.22895,2.992284 0.75004,5.842471 1.571142,8.54263l-10.895391,0l-2.139601,-6.860957l-0.450027,0c-1.20008,2.179098 -2.881753,3.971316 -5.052935,5.400346c-2.179084,1.421128 -4.910823,2.131699 -8.211022,2.131699c-4.421314,0 -7.903107,-1.460611 -10.453253,-4.381832c-2.542257,-3.0002 -3.821288,-6.971474 -3.821288,-11.913877c0,-6.74251 2.400146,-11.5349 7.200438,-14.385072c4.79239,-2.850187 11.274355,-4.050253 19.438007,-3.600226c0.378964,-4.342364 0.078881,-7.492549 -0.900053,-9.434781c-0.900053,-1.950106 -2.881753,-2.921221 -5.952988,-2.921221c-2.250147,0 -4.571328,0.260559 -6.971474,0.781634c-2.392258,0.528977 -4.531859,1.279017 -6.403014,2.250133l-3.371262,-10.00324m16.066745,42.144632c2.02907,0 3.679177,-0.489509 4.950306,-1.460597c1.271129,-1.050081 2.21065,-2.171196 2.81069,-3.371262l0,-9.324235c-1.729043,-0.228964 -3.371248,-0.268461 -4.950292,-0.118461c-1.571156,0.149972 -2.952816,0.489509 -4.152882,1.010584c-1.20008,0.528991 -2.179084,1.310611 -2.921235,2.360678c-0.678977,0.979018 -1.018472,2.250133 -1.018472,3.821288c0,2.329083 0.450027,4.089707 1.35008,5.281899c0.979004,1.200066 2.289601,1.800092 3.931805,1.800092"/>
    <path stroke="null" fill="#452768" fill-rule="nonzero" id="path9" d="m171.512244,153.053l6.181952,0l0,-10.563784l13.374488,-4.16077l0,14.724554l10.903279,0l0,11.913877l-10.903279,0l0,24.498857c0,3.221234 0.300013,5.510849 0.900053,6.853027c0.671089,1.35008 1.831686,2.029084 3.481793,2.029084c1.121129,0 2.139601,-0.118461 3.031766,-0.339509c0.900039,-0.221076 1.879057,-0.560572 2.929123,-1.010584l1.681673,10.674329c-1.650107,0.82899 -3.560744,1.500093 -5.731925,2.021168c-2.171182,0.600026 -4.460797,0.900053 -6.853041,0.900053c-4.271315,0 -7.492563,-1.231646 -9.671633,-3.702855c-2.092231,-2.479083 -3.142297,-6.631978 -3.142297,-12.482323l0,-29.441247l-6.181952,0l0,-11.913877"/>
    <path stroke="null" fill="#452768" fill-rule="nonzero" id="path11" d="m209.72507,153.053l13.374488,0l0,56.198125l-13.374488,0l0,-56.198125m-1.571156,-15.845683c0,-2.250133 0.710585,-4.081819 2.131713,-5.510849c1.42903,-1.500093 3.450199,-2.250133 6.071421,-2.250133c2.621194,0 4.721341,0.718459 6.292483,2.139601c1.571142,1.421128 2.360664,3.300199 2.360664,5.62138c0,2.321209 -0.789522,4.152896 -2.360664,5.502961c-1.571142,1.35008 -3.671289,2.021168 -6.292483,2.021168c-2.621222,0 -4.642391,-0.671089 -6.071421,-2.021168c-1.421128,-1.421128 -2.131713,-3.260717 -2.131713,-5.502961"/>
    <path stroke="null" fill="#452768" fill-rule="nonzero" id="path13" d="m271.836701,205.090328c-1.879071,1.650121 -4.421328,2.992298 -7.642563,4.04235c-3.221248,1.050081 -6.59251,1.579044 -10.113771,1.579044c-3.900239,0 -7.271501,-0.678977 -10.121659,-2.029056c-2.771236,-1.342177 -5.052935,-3.292311 -6.853055,-5.842471c-1.800092,-2.550146 -3.150186,-5.62138 -4.04235,-9.21369c-0.828976,-3.671289 -1.239548,-7.832058 -1.239548,-12.474435c0,-10.113771 1.9817,-17.574754 5.952988,-22.36713c4.050253,-4.871355 9.632164,-7.303067 16.74575,-7.303067c2.400146,0 4.721341,0.371062 6.971474,1.121115c2.250133,0.671089 4.231832,1.871169 5.96089,3.592324c1.792218,1.650107 3.221248,3.900239 4.263399,6.750398c1.129031,2.771222 1.689589,6.292469 1.689589,10.563798c0,1.642204 -0.110489,3.41073 -0.339495,5.281899c-0.149972,1.871155 -0.410544,3.892337 -0.781634,6.063519l-27.317422,0c0.149972,4.650279 1.129003,8.211022 2.929123,10.682203c1.792204,2.471209 4.681845,3.710757 8.653161,3.710757c2.39223,0 4.5713,-0.378964 6.513531,-1.129003c2.02907,-0.750054 3.560744,-1.531687 4.610796,-2.360678l4.160798,9.332124m-17.535286,-42.144618c-2.850159,0 -4.981872,1.160598 -6.403,3.481793c-1.42903,2.250133 -2.250133,5.431898 -2.479111,9.5532l15.514089,0c0.221076,-4.271315 -0.228964,-7.492549 -1.350066,-9.663745c-1.121129,-2.250133 -2.881767,-3.371248 -5.281913,-3.371248"/>
    <path stroke="null" fill="#452768" fill-rule="nonzero" id="path15" d="m346.264836,154.85312l7.4215,0l-4.381846,30.680781c-0.900039,6.813572 0.189384,10.224302 3.260731,10.224302c1.492191,0 2.952816,-0.450027 4.381846,-1.35008c1.500093,-0.892165 2.810704,-2.281727 3.931805,-4.152882c1.200066,-1.871169 2.131713,-4.271315 2.810704,-7.192536c0.75004,-2.921221 1.121129,-6.410916 1.121129,-10.453267c0,-5.171354 -0.750067,-9.592668 -2.242258,-13.263957c-1.42903,-3.742323 -3.450199,-6.781978 -6.071421,-9.103159c-2.621194,-2.400146 -5.731911,-4.160798 -9.332124,-5.281899c-3.592338,-1.121115 -7.524143,-1.689575 -11.795458,-1.689575c-4.800278,0 -9.292669,0.97899 -13.492907,2.929123c-4.121287,1.871169 -7.713625,4.531831 -10.78486,7.974156c-3.000172,3.450213 -5.39243,7.5715 -7.192536,12.363904c-1.729043,4.79239 -2.589628,10.113757 -2.589628,15.964102c0,11.463865 2.850159,20.18806 8.542616,26.18053c5.692457,6.000358 13.674501,8.992656 23.938286,8.992656c1.950106,0 4.089721,-0.260559 6.410902,-0.781634c2.392258,-0.528977 4.531845,-1.279017 6.403014,-2.250133l3.260717,9.774262c-2.400146,1.279031 -5.02134,2.21065 -7.863625,2.810704c-2.850173,0.678991 -6.071421,1.010584 -9.671633,1.010584c-5.913519,0 -11.463837,-0.900053 -16.635219,-2.692271c-5.092403,-1.80012 -9.5532,-4.571328 -13.374474,-8.321553c-3.821288,-3.671275 -6.853041,-8.353134 -9.103173,-14.045577c-2.171196,-5.771408 -3.252829,-12.592868 -3.252829,-20.456493c0,-7.863639 1.231646,-14.914063 3.702855,-21.127596c2.55016,-6.221406 5.921393,-11.463837 10.121659,-15.735138c4.19235,-4.271301 9.024222,-7.532031 14.495589,-9.782178c5.471409,-2.24223 11.203306,-3.371248 17.19579,-3.371248c5.692429,0 11.013824,0.860571 15.956214,2.589628c5.021354,1.650093 9.332151,4.152882 12.924461,7.524129c3.671275,3.300199 6.560916,7.460983 8.653147,12.482323c2.100133,4.942418 3.150186,10.713811 3.150186,17.306307c0,4.942418 -0.75004,9.553228 -2.250133,13.824528c-1.421128,4.192364 -3.371262,7.824142 -5.842443,10.903279c-2.471209,2.992298 -5.39243,5.352948 -8.763692,7.074117c-3.300199,1.729057 -6.82146,2.589628 -10.563784,2.589628c-3.071235,0 -5.700359,-0.789536 -7.871527,-2.360678c-2.100147,-1.571156 -3.071249,-4.310769 -2.921235,-8.203134l-0.339509,0c-1.721141,2.842284 -3.82126,5.321395 -6.292469,7.413612c-2.400146,2.100133 -5.352948,3.1502 -8.874209,3.1502c-3.22915,0 -5.96089,-1.421156 -8.211022,-4.271315c-2.242244,-2.850173 -3.371262,-6.82146 -3.371262,-11.913863c0,-5.021368 0.600026,-9.74271 1.800106,-14.164024c1.271129,-4.421314 2.960718,-8.274183 5.060837,-11.574368c2.092231,-3.371262 4.531859,-6.031938 7.303067,-7.982072c2.771222,-1.942217 5.731925,-2.921221 8.882111,-2.921221c2.092231,0 3.892337,0.378978 5.39243,1.129003c1.500093,0.750067 2.881753,1.760652 4.160784,3.031766l2.802788,-3.481779m-5.952988,12.924461c-1.35008,-1.579044 -3.110703,-2.360664 -5.281899,-2.360664c-1.721141,0 -3.300185,0.631606 -4.721341,1.910637c-1.421128,1.200066 -2.660663,2.84227 -3.710729,4.94239c-1.050081,2.021168 -1.871183,4.381846 -2.471209,7.082019c-0.60004,2.621208 -0.900053,5.352948 -0.900053,8.203106c0,2.621222 0.410544,4.650307 1.239548,6.071435c0.900053,1.421142 2.250133,2.131699 4.04235,2.131699c1.650093,0 3.300199,-0.900039 4.950306,-2.692257c1.721141,-1.879071 3.14227,-3.939707 4.271301,-6.181966l2.581726,-19.106399"/>
    <path stroke="null" fill="#452768" fill-rule="nonzero" id="path17" d="m427.624991,209.251125c0,8.163638 -1.871169,14.156094 -5.621394,17.977396c-3.750226,3.900239 -8.953174,5.842443 -15.624621,5.842443c-4.642377,0 -8.274183,-0.371076 -10.903293,-1.121101c-2.621194,-0.671103 -4.642363,-1.421156 -6.063519,-2.250133l2.810704,-11.345446c1.642204,0.671117 3.402828,1.310611 5.281899,1.910665c1.942203,0.592138 4.231832,0.892137 6.853027,0.892137c3.821302,0 6.442497,-1.04215 7.871527,-3.14227c1.492191,-2.021182 2.242244,-5.131913 2.242244,-9.332151l0,-3.031752l-0.331593,0c-1.050081,1.500093 -2.479111,2.621194 -4.271315,3.371248c-1.729043,0.75004 -3.971288,1.121115 -6.750398,1.121115c-5.913519,0 -10.374302,-2.210664 -13.374502,-6.624076c-2.921221,-4.500265 -4.381846,-11.582284 -4.381846,-21.246015c0,-10.413784 2.029084,-18.095815 6.071435,-23.038219c4.121287,-4.950292 9.963758,-7.4215 17.535258,-7.4215c4.04235,0 7.674157,0.339495 10.903279,1.010584c3.221248,0.60004 5.803002,1.35008 7.753108,2.250133l0,54.176943m-20.795988,-10.571686c2.021182,0 3.600226,-0.481607 4.721341,-1.460625c1.20008,-0.971116 2.100119,-2.36065 2.700145,-4.152868l0,-28.09907c-0.828976,-0.378964 -1.760624,-0.678977 -2.810676,-0.900053c-0.971116,-0.22895 -2.139615,-0.339495 -3.481793,-0.339495c-2.779124,0 -4.950306,1.350094 -6.521447,4.050253c-1.500093,2.692271 -2.250133,7.342536 -2.250133,13.935046c0,11.313851 2.55016,16.966812 7.642563,16.966812"/>
    <path stroke="null" fill="#452768" fill-rule="nonzero" id="path19" d="m450.813224,191.036863c0,2.62911 0.268433,4.500265 0.789522,5.621394c0.521075,1.129003 1.389548,1.689589 2.58174,1.689589c0.678977,0 1.350066,-0.079021 2.029056,-0.228964c0.750067,-0.149972 1.571156,-0.410558 2.471209,-0.781634l1.231646,10.784846c-0.892151,0.600054 -2.431712,1.160598 -4.602908,1.689575c-2.171182,0.521089 -4.381832,0.781634 -6.631964,0.781634c-3.75024,0 -6.560916,-0.931633 -8.432098,-2.81069c-1.871169,-1.871183 -2.81069,-5.052935 -2.81069,-9.553214l0,-67.65406l13.374488,0l0,60.461524"/>
    <path stroke="null" fill="#452768" fill-rule="nonzero" id="path21" d="m464.550885,156.424262c2.242258,-1.35008 5.052935,-2.431712 8.424196,-3.260717c3.371262,-0.821102 7.192522,-1.23166 11.463851,-1.23166c6.371434,0 10.792748,1.642204 13.263957,4.942418c2.550132,3.292283 3.821274,7.982058 3.821274,14.045577c0,3.521247 -0.110489,7.010956 -0.339495,10.453253c-0.149972,3.371262 -0.260531,6.710929 -0.331593,10.00324c-0.079021,3.221234 -0.03944,6.37142 0.110489,9.442655c0.221048,2.992284 0.75004,5.842471 1.571142,8.54263l-10.903293,0l-2.131713,-6.860957l-0.450013,0c-1.200066,2.179098 -2.881767,3.971316 -5.060837,5.400346c-2.171182,1.421128 -4.902921,2.131699 -8.20312,2.131699c-4.421314,0 -7.903107,-1.460611 -10.453267,-4.381832c-2.542243,-3.0002 -3.821274,-6.971474 -3.821274,-11.913877c0,-6.74251 2.400146,-11.5349 7.192536,-14.385072c4.800292,-2.850187 11.282257,-4.050253 19.445895,-3.600226c0.378978,-4.342364 0.079021,-7.492549 -0.900053,-9.434781c-0.900039,-1.950106 -2.881739,-2.921221 -5.952974,-2.921221c-2.250133,0 -4.571342,0.260559 -6.971474,0.781634c-2.392244,0.528977 -4.531859,1.279017 -6.403028,2.250133l-3.371276,-10.00324m16.066759,42.144632c2.02907,0 3.671275,-0.489509 4.950306,-1.460597c1.271129,-1.050081 2.21065,-2.171196 2.810676,-3.371262l0,-9.324235c-1.729029,-0.228964 -3.371234,-0.268461 -4.950278,-0.118461c-1.571156,0.149972 -2.960718,0.489509 -4.152882,1.010584c-1.20008,0.528991 -2.179098,1.310611 -2.929123,2.360678c-0.671103,0.979018 -1.010598,2.250133 -1.010598,3.821288c0,2.329083 0.45004,4.089707 1.350094,5.281899c0.97899,1.200066 2.289601,1.800092 3.931805,1.800092"/>
    <path stroke="null" fill="#452768" fill-rule="nonzero" id="path23" d="m529.639009,194.297594c0,-1.571142 -0.528977,-2.881753 -1.57903,-3.931819c-0.971116,-1.121115 -2.242258,-2.131713 -3.821302,-3.031752c-1.571142,-0.979018 -3.260717,-1.95012 -5.052935,-2.921221c-1.729043,-0.979018 -3.371248,-2.179098 -4.950292,-3.600226c-1.571142,-1.421142 -2.881753,-3.1502 -3.931819,-5.171368c-0.971102,-2.021182 -1.460611,-4.571328 -1.460611,-7.642563c0,-5.242431 1.421142,-9.292655 4.271315,-12.134926c2.850159,-2.850187 7.042523,-4.271315 12.584966,-4.271315c3.300199,0 6.410902,0.371076 9.332151,1.121101c2.921221,0.679005 5.242417,1.539575 6.963572,2.589628l-3.142311,10.334834c-1.42903,-0.600026 -3.150172,-1.16057 -5.171354,-1.681673c-2.021168,-0.600026 -4.01077,-0.900053 -5.953002,-0.900053c-3.679163,0 -5.510849,1.531673 -5.510849,4.602908c0,1.429044 0.489509,2.62911 1.460625,3.600212c1.050053,0.900067 2.360664,1.80012 3.931805,2.700159c1.579044,0.900053 3.221248,1.8317 4.950306,2.810704c1.792204,0.971116 3.481793,2.202762 5.052935,3.702855c1.571128,1.42903 2.850173,3.189654 3.82126,5.281899c1.050081,2.100119 1.57117,4.681859 1.579044,7.760982c-0.008392,5.16348 -1.579044,9.324235 -4.721313,12.474449c-3.1502,3.14227 -7.832058,4.721313 -14.053493,4.721313c-3.071235,0 -6.102987,-0.378964 -9.103159,-1.129003c-2.921249,-0.75004 -5.281913,-1.721155 -7.082019,-2.921221l3.710757,-10.78486c1.571142,0.892165 3.371262,1.681673 5.39243,2.352762c2.100119,0.678991 4.271315,1.018486 6.521447,1.018486c1.721141,0 3.150172,-0.378964 4.271301,-1.129003c1.121129,-0.821102 1.689575,-2.092245 1.689575,-3.821288"/>
    <path stroke="null" fill="#452768" fill-rule="nonzero" id="path25" d="m577.918237,209.251125l0,-34.170476c0,-4.121287 -0.489509,-7.00304 -1.460625,-8.653147c-0.971116,-1.650107 -2.621222,-2.471209 -4.942404,-2.471209c-1.95012,0 -3.63968,0.60004 -5.060837,1.792218c-1.421128,1.200066 -2.431712,2.700159 -3.031752,4.500265l0,39.002349l-13.374502,0l0,-56.198125l10.674329,0l1.571156,6.521447l0.339509,0c1.350052,-2.17907 3.181752,-4.010756 5.510849,-5.510849c2.321195,-1.571142 5.352948,-2.360678 9.103159,-2.360678c2.242258,0 4.231832,0.339495 5.953002,1.010584c1.800106,0.679005 3.300199,1.80012 4.500265,3.371262c1.192178,1.500093 2.092245,3.560744 2.692271,6.181966c0.60004,2.550132 0.900053,5.731911 0.900053,9.5532l0,37.431193l-13.374474,0"/>
    <path stroke="null" fill="#452768" fill-rule="nonzero" id="path27" d="m596.148276,153.053l6.181938,0l0,-10.563784l13.374488,-4.16077l0,14.724554l10.903293,0l0,11.913877l-10.903293,0l0,24.498857c0,3.221234 0.300027,5.510849 0.900053,6.853027c0.678991,1.35008 1.839588,2.029084 3.481793,2.029084c1.129017,0 2.139601,-0.118461 3.039654,-0.339509c0.900067,-0.221076 1.871155,-0.560572 2.921235,-1.010584l1.681673,10.674329c-1.642204,0.82899 -3.552856,1.500093 -5.731925,2.021168c-2.171182,0.600026 -4.452909,0.900053 -6.853055,0.900053c-4.271301,0 -7.492549,-1.231646 -9.663731,-3.702855c-2.100119,-2.479083 -3.150186,-6.631978 -3.150186,-12.482323l0,-29.441247l-6.181938,0l0,-11.913877"/>
    <path stroke="null" fill="#452768" fill-rule="nonzero" id="path29" d="m638.695564,201.940156c0,-2.771208 0.710557,-4.871355 2.139587,-6.292483c1.500093,-1.421128 3.442324,-2.131713 5.842471,-2.131713c2.621194,0 4.642377,0.710585 6.071407,2.131713c1.421142,1.421128 2.131713,3.521275 2.131713,6.292483c0,2.700159 -0.75004,4.800292 -2.250133,6.292483c-1.421156,1.500093 -3.402828,2.250133 -5.952988,2.250133c-2.471209,0 -4.421314,-0.75004 -5.842471,-2.250133c-1.42903,-1.492191 -2.139587,-3.592324 -2.139587,-6.292483"/>
    <path stroke="null" fill="#452768" fill-rule="nonzero" id="path31" d="m696.788522,206.211457c-1.871183,1.500093 -4.121315,2.621222 -6.74251,3.371262c-2.621222,0.75004 -5.242417,1.129003 -7.863639,1.129003c-3.821274,0 -7.042523,-0.678977 -9.663745,-2.029056c-2.550146,-1.421142 -4.650265,-3.402842 -6.300357,-5.952988c-1.642204,-2.621208 -2.84227,-5.731925 -3.592338,-9.332137c-0.678991,-3.671275 -1.010584,-7.753108 -1.010584,-12.245471c0,-9.821646 1.760652,-17.195776 5.281899,-22.146082c3.521261,-4.94239 8.692615,-7.413584 15.506201,-7.413584c3.371262,0 6.110903,0.299999 8.20312,0.900053c2.179084,0.600026 4.089721,1.35008 5.731925,2.24223l-3.142297,11.132258c-1.350094,-0.678991 -2.660677,-1.160598 -3.931819,-1.460625c-1.200066,-0.378964 -2.660691,-0.568446 -4.389748,-0.568446c-3.14227,0 -5.502947,1.389548 -7.074103,4.16077c-1.579044,2.700159 -2.36065,7.082005 -2.36065,13.153426c0,5.092417 0.781606,9.253187 2.36065,12.474435c1.642204,3.221234 4.231832,4.831858 7.753108,4.831858c1.871155,0 3.44231,-0.228964 4.721341,-0.671103c1.35008,-0.528977 2.581726,-1.168472 3.702841,-1.910623l2.810704,10.33482"/>
    <path stroke="null" fill="#452768" fill-rule="nonzero" id="path33" d="m699.370262,181.15207c0,-9.963758 1.950106,-17.385258 5.842443,-22.256599c3.900239,-4.871355 9.332137,-7.303067 16.295709,-7.303067c7.492577,0 13.074475,2.471195 16.74575,7.413584c3.671289,4.950306 5.510849,12.324435 5.510849,22.146082c0,10.034807 -1.950106,17.495775 -5.842443,22.36713c-3.900239,4.792376 -9.37162,7.192522 -16.414156,7.192522c-14.756148,0 -22.138152,-9.853227 -22.138152,-29.559652m13.824501,0c0,5.613492 0.63162,9.963744 1.910651,13.034979c1.271115,3.071235 3.41073,4.61081 6.403,4.61081c2.850187,0 4.950306,-1.310597 6.292497,-3.939693c1.42903,-2.692285 2.139601,-7.263599 2.139601,-13.706095c0,-5.771394 -0.639522,-10.15324 -1.910637,-13.153426c-1.271143,-2.992298 -3.450199,-4.492363 -6.521461,-4.492363c-2.621194,0 -4.681845,1.35008 -6.181938,4.042337c-1.421128,2.621208 -2.131713,7.16097 -2.131713,13.603452"/>
    <path stroke="null" fill="#452768" fill-rule="nonzero" id="path35" d="m777.406512,209.251125l0,-32.709852c0,-4.721341 -0.378978,-7.982058 -1.129003,-9.774276c-0.75004,-1.879071 -2.210664,-2.810704 -4.381846,-2.810704c-1.800106,0 -3.292297,0.60004 -4.492363,1.792218c-1.129031,1.129017 -1.989602,2.510677 -2.589628,4.160784l0,39.34183l-13.374502,0l0,-56.198125l10.342736,0l1.681673,6.742524l0.339495,0c1.421128,-2.321195 3.181752,-4.231832 5.281899,-5.731925c2.171182,-1.571142 5.02134,-2.360678 8.542616,-2.360678c2.921221,0 5.281885,0.639522 7.082005,1.910665c1.871169,1.271115 3.331765,3.521247 4.381832,6.742496c1.421142,-2.692271 3.300213,-4.79239 5.62138,-6.292483c2.321209,-1.571142 5.052935,-2.360678 8.203148,-2.360678c2.471181,0 4.571328,0.339495 6.292469,1.010584c1.800106,0.600054 3.221248,1.689589 4.271315,3.260731c1.121129,1.571156 1.950106,3.750226 2.471209,6.521447c0.528977,2.692271 0.789508,6.14247 0.789508,10.334834l0,36.420609l-13.374488,0l0,-34.170476c0,-3.821288 -0.339481,-6.631978 -1.010584,-8.432098c-0.678977,-1.79219 -2.171168,-2.692257 -4.500265,-2.692257c-1.871169,0 -3.402828,0.560572 -4.602908,1.681673c-1.129031,1.050081 -1.950134,2.510677 -2.471209,4.381846l0,39.231313l-13.374488,0"/>
   </g>
   <path stroke="#000000" fill="none" stroke-width="2.140645" stroke-miterlimit="4" stroke-opacity="0.56621" id="path67" d="m280.947507,230.0419l0,21.017051l352.105092,0l0,-21.017051"/>
   <g id="svg_40">
    <g stroke="null" id="svg_16">
     <g stroke="null" fill="#000000" id="svg_10" transform="matrix(0.013654113465868277,0,0,-0.013633860168861808,590.8982027998619,419.45444223484) ">
      <path stroke="null" fill="#4c4c4c" id="svg_13" d="m-11525.238621,10378.593552l-3,-508l-48,-3c-27,-2 -55,2 -63,9c-12,10 -14,90 -14,500c0,555 10,502 -90,471l-55,-18l-5,-479l-5,-480l-53,-3c-31,-2 -60,2 -68,9c-12,10 -14,82 -14,435c0,390 -1,424 -17,424c-9,0 -60,-44 -114,-98c-86,-87 -103,-111 -147,-203c-84,-172 -85,-176 -89,-571l-5,-348l671,0c369,0 671,4 671,8c0,13 119,107 191,150c87,53 188,95 295,123c131,34 340,33 475,-3c160,-43 317,-124 436,-225l62,-53l666,0l667,0l-4,353c-4,329 -6,357 -27,427c-42,142 -93,224 -215,346c-122,121 -203,172 -346,216l-75,23l-1197,3l-1198,3l-2,-508l-3,-508l-48,-3c-27,-2 -55,2 -63,9c-12,10 -14,91 -14,510l0,499l-75,0l-75,0l-2,-507zm2872,122c17,-9 39,-33 50,-55c18,-36 20,-59 20,-277c0,-344 11,-333 -329,-333c-258,0 -289,7 -322,72c-19,37 -20,55 -17,289l3,251l37,34l38,34l245,0c201,0 251,-3 275,-15z"/>
      <path stroke="null" fill="#4c4c4c" id="svg_12" d="m-10368.238621,9608.593552c-352,-49 -638,-331 -695,-686c-17,-103 -8,-270 20,-367c39,-137 92,-223 210,-340c117,-118 193,-167 312,-205c468,-148 948,112 1069,580c27,104 29,300 5,395c-44,171 -98,264 -231,395c-129,129 -240,187 -413,221c-69,13 -207,17 -277,7zm220,-248c78,-16 234,-90 280,-133c81,-75 147,-183 181,-298c25,-82 22,-218 -5,-304c-76,-241 -306,-413 -551,-413c-90,0 -159,18 -260,66c-195,92 -323,297 -323,517c-1,269 194,506 464,564c84,19 129,19 214,1z"/>
      <path stroke="null" fill="#4c4c4c" id="svg_11" d="m-12311.238621,8408.593552l3,-1008l23,-75c44,-143 95,-224 216,-346c124,-123 207,-174 352,-216l79,-23l1385,0l1385,0l79,23c159,46 270,115 389,242c83,88 151,206 189,330l23,75l3,1003l3,1002l-616,0c-536,0 -615,-2 -615,-15c0,-8 16,-40 36,-70c189,-297 208,-678 50,-994c-162,-322 -460,-529 -823,-571c-292,-34 -630,92 -840,314c-84,88 -131,158 -193,289c-73,151 -94,249 -94,427c0,117 4,162 22,234c26,105 74,219 125,299c20,32 37,64 37,72c0,13 -78,15 -610,15l-611,0l3,-1007z"/>
     </g>
    </g>
    <path stroke="null" fill="#4c4c4c" fill-rule="nonzero" id="svg_17" d="m509.104355,316.454961c-0.386852,0.079021 -0.560558,0.260559 -0.513188,0.55267c0.047274,0.300027 0.268433,0.394768 0.663187,0.300027c0.394768,-0.102657 0.568459,-0.276336 0.5132,-0.521076c-0.047272,-0.268447 -0.268432,-0.378978 -0.6632,-0.331622zm0,0"/>
    <path stroke="null" fill="#4c4c4c" fill-rule="nonzero" id="svg_18" d="m507.004223,316.754988c-0.386867,0 -0.584237,0.134265 -0.584237,0.402656c0,0.315818 0.205273,0.457929 0.623719,0.402671c0.394754,0 0.592138,-0.134265 0.592138,-0.402671c0,-0.315803 -0.213174,-0.457914 -0.63162,-0.402656zm0,0"/>
    <path stroke="null" fill="#4c4c4c" fill-rule="nonzero" id="svg_19" d="m504.130385,316.644457c-0.094824,0.268447 0.063076,0.450027 0.481607,0.55267c0.371061,0.142083 0.600026,0.071187 0.702654,-0.221063c0.071189,-0.276334 -0.086853,-0.465816 -0.481606,-0.592137c-0.371063,-0.094826 -0.600026,-0.016224 -0.702656,0.26053zm0,0"/>
    <path stroke="null" fill="#4c4c4c" fill-rule="nonzero" id="svg_20" d="m541.553654,274.065589c-2.076427,-2.068539 -4.579202,-3.110702 -7.500437,-3.110702l-35.370543,0c-2.921235,0 -5.424025,1.042164 -7.500451,3.110702c-2.068554,2.076441 -3.110704,4.579216 -3.110704,7.500466l0,35.370542c0,2.921222 1.04215,5.423997 3.110704,7.500437c2.076426,2.076455 4.579216,3.110717 7.500451,3.110717l8.250491,0c0.544767,0 0.947437,-0.016223 1.21587,-0.055104c0.276334,-0.039441 0.544767,-0.197469 0.813187,-0.481607c0.26846,-0.276334 0.402669,-0.686865 0.402669,-1.231633c0,-0.071189 0,-0.907955 -0.016223,-2.502802c-0.016224,-1.602708 -0.016224,-2.865949 -0.016224,-3.797583l-0.852682,0.149972c-0.536865,0.094824 -1.215856,0.142083 -2.044861,0.126294c-0.821102,-0.016224 -1.673784,-0.094826 -2.558047,-0.260559c-0.884263,-0.157846 -1.705365,-0.528977 -2.471209,-1.105311c-0.757942,-0.576362 -1.302709,-1.326401 -1.618512,-2.265936l-0.371061,-0.844795c-0.244769,-0.560558 -0.63162,-1.192164 -1.160599,-1.879042c-0.528991,-0.686894 -1.057968,-1.152725 -1.602735,-1.397465l-0.252643,-0.189384c-0.173622,-0.118461 -0.331593,-0.268433 -0.481607,-0.442124c-0.149971,-0.165734 -0.260558,-0.339496 -0.331593,-0.513202c-0.071189,-0.173621 -0.016223,-0.315803 0.181496,-0.42632c0.197468,-0.110489 0.552669,-0.165747 1.073744,-0.165747l0.734264,0.110489c0.489509,0.102657 1.097436,0.394754 1.823797,0.884263c0.726347,0.497411 1.318499,1.129032 1.784316,1.918539c0.568459,1.002695 1.24745,1.776441 2.044861,2.30542c0.79741,0.521074 1.602736,0.789507 2.415936,0.789507c0.813187,0 1.507967,-0.063076 2.100119,-0.181496c0.592138,-0.126293 1.144808,-0.307929 1.657981,-0.552669c0.221076,-1.650106 0.821102,-2.913347 1.808022,-3.79761c-1.405366,-0.149972 -2.660691,-0.371061 -3.78182,-0.663187c-1.113214,-0.292125 -2.265909,-0.773731 -3.458101,-1.436932c-1.192178,-0.663186 -2.17907,-1.484289 -2.968606,-2.471209c-0.789509,-0.978989 -1.42903,-2.273824 -1.934316,-3.868644c-0.505299,-1.594834 -0.757942,-3.434423 -0.757942,-5.526639c0,-2.968606 0.971116,-5.502975 2.913333,-7.587304c-0.907941,-2.234357 -0.821102,-4.745034 0.260559,-7.516242c0.710557,-0.221062 1.768525,-0.055104 3.165961,0.497384c1.397465,0.552669 2.423838,1.026402 3.079137,1.421155c0.647397,0.386867 1.168486,0.71846 1.563254,0.994794c2.281713,-0.639508 4.642376,-0.963227 7.074117,-0.963227c2.431712,0 4.792375,0.323719 7.074102,0.963227l1.397436,-0.884263c0.963242,-0.592137 2.092245,-1.136904 3.394954,-1.626413c1.302709,-0.489509 2.297503,-0.623719 2.984382,-0.402657c1.105339,2.771208 1.200066,5.281885 0.292125,7.516242c1.942217,2.084329 2.913333,4.618698 2.913333,7.587304c0,2.092217 -0.252643,3.939707 -0.757942,5.550317c-0.505285,1.602736 -1.152696,2.897543 -1.950106,3.868659c-0.79741,0.963227 -1.792218,1.78433 -2.98441,2.447516c-1.192163,0.663201 -2.344859,1.144807 -3.465988,1.436932c-1.113213,0.292126 -2.376454,0.513174 -3.773918,0.663187c1.279045,1.105339 1.910665,2.850187 1.910665,5.234542l0,8.803161c0,0.418446 0.063076,0.75794 0.189384,1.010583c0.118461,0.26053 0.315804,0.434236 0.584236,0.536866c0.276336,0.094824 0.513173,0.15786 0.726347,0.181495c0.2053,0.023637 0.505299,0.039441 0.900067,0.039441l8.250505,0c2.921221,0 5.423996,-1.034262 7.500423,-3.110717c2.076455,-2.076441 3.110731,-4.579216 3.110731,-7.500437l0,-35.370543c0,-2.921248 -1.034276,-5.424023 -3.110731,-7.500465l0.001049,-0.000182zm0,0"/>
    <path stroke="null" fill="#4c4c4c" fill-rule="nonzero" id="svg_21" d="m499.898552,312.144192c-0.173621,0.126294 -0.149971,0.323705 0.071189,0.592138c0.244755,0.24474 0.442125,0.284237 0.592138,0.11049c0.173622,-0.126294 0.142083,-0.315804 -0.07902,-0.592138c-0.244755,-0.221076 -0.442125,-0.252656 -0.584236,-0.11049l-0.000071,0zm0,0"/>
    <path stroke="null" fill="#4c4c4c" fill-rule="nonzero" id="svg_22" d="m498.682669,311.228349c-0.07902,0.173621 0.008392,0.315816 0.252643,0.442138c0.197481,0.118461 0.363187,0.094826 0.481606,-0.07902c0.071189,-0.165734 -0.00839,-0.315803 -0.26053,-0.442124c-0.244754,-0.071189 -0.402656,-0.047272 -0.473718,0.07902l0,-0.000014zm0,0"/>
    <path stroke="null" fill="#4c4c4c" fill-rule="nonzero" id="svg_23" d="m501.035458,313.581125c-0.221076,0.126293 -0.221076,0.34737 0,0.663186c0.221062,0.323705 0.434236,0.410558 0.63162,0.260545c0.221048,-0.173622 0.221048,-0.402656 0,-0.702683c-0.197468,-0.315804 -0.410558,-0.386852 -0.63162,-0.221048zm0,0"/>
    <path stroke="null" fill="#4c4c4c" fill-rule="nonzero" id="svg_24" d="m502.330266,315.239105c-0.221063,0.197469 -0.173622,0.43425 0.149971,0.702683c0.292125,0.292125 0.536866,0.331593 0.73425,0.11049c0.197468,-0.197469 0.142083,-0.426349 -0.149972,-0.702683c-0.292125,-0.292111 -0.536865,-0.331594 -0.734249,-0.11049zm0,0"/>
    <path stroke="null" fill="#4c4c4c" fill-rule="nonzero" id="svg_26" d="m408.818831,274.065586c-2.076455,-2.068539 -4.579245,-3.110702 -7.500466,-3.110702l-35.370542,0c-2.921222,0 -5.423997,1.042164 -7.500452,3.110702c-2.07644,2.076441 -3.110717,4.579216 -3.110717,7.500466l0,35.370542c0,2.921222 1.034277,5.423997 3.110717,7.500437c2.076455,2.076455 4.57923,3.110717 7.500452,3.110717l35.370542,0c2.921221,0 5.424011,-1.034262 7.492563,-3.110717c2.076441,-2.07644 3.118605,-4.579215 3.118605,-7.500437l0,-35.370542c0,-2.92125 -1.042164,-5.424025 -3.110702,-7.500466zm-10.192722,18.664275c0.023636,0.221076 0.03944,0.55267 0.03944,0.994794c0,2.060651 -0.300026,4.137106 -0.900052,6.205631c-0.607929,2.076455 -1.523786,4.066042 -2.763334,5.968792c-1.239534,1.910637 -2.723852,3.592323 -4.445007,5.052935c-1.713239,1.46061 -3.781791,2.62911 -6.18984,3.497583c-2.400145,0.87636 -4.981872,1.310597 -7.737289,1.310597c-4.271315,0 -8.226826,-1.160584 -11.858619,-3.465988c0.584236,0.071189 1.200066,0.110489 1.839589,0.110489c3.560729,0 6.766187,-1.105339 9.61636,-3.315989c-1.665883,-0.023636 -3.158073,-0.536865 -4.476586,-1.547449c-1.310598,-1.00271 -2.226454,-2.281727 -2.74753,-3.829177c0.639522,0.094826 1.121129,0.142084 1.436932,0.142084c0.544767,0 1.168486,-0.094826 1.879043,-0.292111c-1.79219,-0.347412 -3.300185,-1.231675 -4.531831,-2.66858c-1.223759,-1.436932 -1.839589,-3.079137 -1.839589,-4.918739l0,-0.07902c1.302709,0.61583 2.526468,0.939522 3.687065,0.963213c-2.234343,-1.500093 -3.355472,-3.647596 -3.355472,-6.450384c0,-1.373772 0.355286,-2.676467 1.065857,-3.908141c1.942218,2.38437 4.302882,4.287119 7.074117,5.716149c2.779111,1.421128 5.747716,2.218538 8.92158,2.392244c-0.126294,-0.465831 -0.189384,-1.057969 -0.189384,-1.768526c0,-2.139601 0.757942,-3.963413 2.265923,-5.471381c1.515883,-1.507981 3.339682,-2.265923 5.471381,-2.265923c2.265938,0 4.144993,0.8132 5.637199,2.431712c1.697448,-0.315803 3.34757,-0.947423 4.94239,-1.879057c-0.61583,1.894847 -1.760623,3.331779 -3.426521,4.310798c1.594835,-0.221077 3.079123,-0.639523 4.452895,-1.255353c-1.026373,1.571156 -2.321195,2.913333 -3.868644,4.018658l-0.00007,0.00014zm0,0"/>
   </g>
  </g>
 </g>
</svg>