<?xml version="1.0" encoding="UTF-8" standalone="no"?>
<!-- Created with Inkscape (http://www.inkscape.org/) -->

<svg
   xmlns:dc="http://purl.org/dc/elements/1.1/"
   xmlns:cc="http://creativecommons.org/ns#"
   xmlns:rdf="http://www.w3.org/1999/02/22-rdf-syntax-ns#"
   xmlns:svg="http://www.w3.org/2000/svg"
   xmlns="http://www.w3.org/2000/svg"
   xmlns:sodipodi="http://sodipodi.sourceforge.net/DTD/sodipodi-0.dtd"
   xmlns:inkscape="http://www.inkscape.org/namespaces/inkscape"
   width="567.32874"
   height="300.11725"
   id="svg2"
   version="1.1"
   inkscape:version="0.48.4 r9939"
   sodipodi:docname="katie.svg">
  <defs
     id="defs4" />
  <sodipodi:namedview
     id="base"
     pagecolor="#ffffff"
     bordercolor="#666666"
     borderopacity="1.0"
     inkscape:pageopacity="0"
     inkscape:pageshadow="2"
     inkscape:zoom="0.91523632"
     inkscape:cx="-210.51395"
     inkscape:cy="178.29743"
     inkscape:document-units="px"
     inkscape:current-layer="layer1"
     showgrid="true"
     fit-margin-top="50"
     fit-margin-left="50"
     fit-margin-right="50"
     fit-margin-bottom="50"
     inkscape:window-width="1920"
     inkscape:window-height="1056"
     inkscape:window-x="0"
     inkscape:window-y="24"
     inkscape:window-maximized="1" />
  <metadata
     id="metadata7">
    <rdf:RDF>
      <cc:Work
         rdf:about="">
        <dc:format>image/svg+xml</dc:format>
        <dc:type
           rdf:resource="http://purl.org/dc/dcmitype/StillImage" />
        <dc:title />
      </cc:Work>
    </rdf:RDF>
  </metadata>
  <g
     inkscape:label="Layer 1"
     inkscape:groupmode="layer"
     id="layer1"
     transform="translate(108.32898,36.918895)">
    <flowRoot
       xml:space="preserve"
       id="flowRoot3071"
       style="font-size:40px;font-style:normal;font-variant:normal;font-weight:normal;font-stretch:normal;line-height:125%;letter-spacing:0px;word-spacing:0px;fill:#000000;fill-opacity:1;stroke:none;font-family:PT Sans;-inkscape-font-specification:PT Sans"><flowRegion
         id="flowRegion3073"><rect
           id="rect3075"
           width="392.85715"
           height="204.28572"
           x="50"
           y="82.362183" /></flowRegion><flowPara
         id="flowPara3077" /></flowRoot>    <flowRoot
       xml:space="preserve"
       id="flowRoot3079"
       style="font-size:40px;font-style:normal;font-variant:normal;font-weight:normal;font-stretch:normal;line-height:125%;letter-spacing:0px;word-spacing:0px;fill:#000000;fill-opacity:1;stroke:none;font-family:PT Sans;-inkscape-font-specification:PT Sans"><flowRegion
         id="flowRegion3081"><rect
           id="rect3083"
           width="177.14285"
           height="174.28572"
           x="407.14285"
           y="141.6479" /></flowRegion><flowPara
         id="flowPara3085" /></flowRoot>    <g
       id="g3997">
      <path
         d="m -40.825495,116.98648 -1.946228,0 0,14.38818 -8.27147,0 0,-48.655699 8.27147,0 0,28.706869 1.668195,-0.97312 5.769176,-13.83212 8.966552,0 -6.39475,13.76261 -2.98885,2.36328 3.266882,2.36328 7.089832,16.2649 -9.314092,0 -6.116717,-14.38818"
         style="font-size:57.9234581px;font-style:normal;font-variant:normal;font-weight:normal;font-stretch:normal;line-height:125%;letter-spacing:0px;word-spacing:0px;fill:#000000;fill-opacity:1;stroke:none;font-family:PT Sans;-inkscape-font-specification:PT Sans"
         id="path3032"
         inkscape:connector-curvature="0" />
      <path
         d="m -22.328725,98.705835 c 1.390159,-0.834065 3.127861,-1.505976 5.213112,-2.015737 2.085234,-0.509691 4.448508,-0.764554 7.089831,-0.764589 3.9387755,3.5e-5 6.6727599,1.019487 8.2019612,3.058358 1.5754929,2.038933 2.3632511,4.935103 2.363277,8.688523 -2.59e-5,2.17794 -0.069534,4.33269 -0.2085244,6.46425 -0.092703,2.08526 -0.1622113,4.14734 -0.2085245,6.18623 -0.046364,1.99257 -0.023195,3.9388 0.069508,5.83868 0.1389906,1.85356 0.4633616,3.61443 0.9731141,5.28262 l -6.7422904,0 -1.3206548,-4.23999 -0.2780326,0 c -0.7414377,1.34382 -1.7840589,2.45595 -3.1278666,3.33639 -1.343838,0.88043 -3.035201,1.32065 -5.074095,1.32065 -2.733994,0 -4.888745,-0.9036 -6.464257,-2.71082 -1.57552,-1.85354 -2.363279,-4.3095 -2.363278,-7.36786 -10e-7,-4.17048 1.482838,-7.13615 4.448522,-8.89704 2.965672,-1.76086 6.973971,-2.50228 12.0249094,-2.22426 0.2316759,-2.68763 0.046321,-4.63386 -0.5560652,-5.83869 -0.5560817,-1.20478 -1.7840582,-1.80718 -3.6839322,-1.80721 -1.390175,3e-5 -2.826675,0.16221 -4.309505,0.48656 -1.482848,0.3244 -2.803501,0.78778 -3.961964,1.39016 l -2.085245,-6.186225 m 9.939666,26.065555 c 1.251132,1e-5 2.270584,-0.30119 3.058358,-0.90361 0.7877421,-0.64873 1.3669761,-1.34381 1.7377037,-2.08524 l 0,-5.76918 c -1.0658084,-0.139 -2.0852602,-0.16217 -3.0583587,-0.0695 -0.973128,0.0927 -1.830394,0.30121 -2.571801,0.62557 -0.741432,0.32438 -1.343835,0.81094 -1.807212,1.45967 -0.417059,0.60242 -0.625583,1.39017 -0.625573,2.36328 -10e-6,1.43651 0.278022,2.52547 0.834097,3.26688 0.602393,0.74143 1.413321,1.11214 2.432786,1.11213"
         style="font-size:57.9234581px;font-style:normal;font-variant:normal;font-weight:normal;font-stretch:normal;line-height:125%;letter-spacing:0px;word-spacing:0px;fill:#000000;fill-opacity:1;stroke:none;font-family:PT Sans;-inkscape-font-specification:PT Sans"
         id="path3034"
         inkscape:connector-curvature="0" />
      <path
         d="m 3.5359099,96.62059 3.8229481,0 0,-6.533766 8.27147,-2.571801 0,9.105567 6.74229,0 0,7.36786 -6.74229,0 0,15.15278 c -1.3e-5,1.99258 0.185342,3.40591 0.556065,4.24 0.417035,0.8341 1.135286,1.25115 2.154753,1.25114 0.695065,1e-5 1.320638,-0.0695 1.87672,-0.20852 0.556047,-0.13901 1.158451,-0.34753 1.807211,-0.62557 l 1.042623,6.60327 c -1.019472,0.50973 -2.201109,0.92678 -3.544916,1.25115 -1.343839,0.37071 -2.75717,0.55606 -4.239997,0.55606 -2.641319,0 -4.633884,-0.76459 -5.977701,-2.29377 -1.29749,-1.52917 -1.946232,-4.10097 -1.946228,-7.7154 l 0,-18.21114 -3.8229481,0 0,-7.36786"
         style="font-size:57.9234581px;font-style:normal;font-variant:normal;font-weight:normal;font-stretch:normal;line-height:125%;letter-spacing:0px;word-spacing:0px;fill:#000000;fill-opacity:1;stroke:none;font-family:PT Sans;-inkscape-font-specification:PT Sans"
         id="path3036"
         inkscape:connector-curvature="0" />
      <path
         d="m 27.169764,96.62059 8.27147,0 0,34.75407 -8.27147,0 0,-34.75407 M 26.19665,86.819941 c -3e-6,-1.390117 0.440215,-2.525415 1.320655,-3.405899 0.880431,-0.926726 2.131577,-1.390114 3.75344,-1.390163 1.621847,4.9e-5 2.919331,0.440267 3.892456,1.320655 0.973102,0.880484 1.459658,2.038952 1.459671,3.475407 -1.3e-5,1.436545 -0.486569,2.571844 -1.459671,3.4059 -0.973125,0.834138 -2.270609,1.251186 -3.892456,1.251146 -1.621863,4e-5 -2.873009,-0.417008 -3.75344,-1.251146 -0.88044,-0.880395 -1.320658,-2.015694 -1.320655,-3.4059"
         style="font-size:57.9234581px;font-style:normal;font-variant:normal;font-weight:normal;font-stretch:normal;line-height:125%;letter-spacing:0px;word-spacing:0px;fill:#000000;fill-opacity:1;stroke:none;font-family:PT Sans;-inkscape-font-specification:PT Sans"
         id="path3038"
         inkscape:connector-curvature="0" />
      <path
         d="m 65.580619,128.80286 c -1.158494,1.01946 -2.734011,1.85355 -4.726554,2.5023 -1.992586,0.64874 -4.077829,0.97311 -6.255733,0.97311 -2.409629,0 -4.494871,-0.41705 -6.255733,-1.25115 -1.714542,-0.83409 -3.127873,-2.0389 -4.239997,-3.61442 -1.112135,-1.57551 -1.946232,-3.4754 -2.502294,-5.69967 -0.509728,-2.27059 -0.764591,-4.84238 -0.764589,-7.7154 -2e-6,-6.25571 1.227974,-10.86641 3.683931,-13.83212 2.502286,-3.01199 5.95452,-4.517998 10.356714,-4.518034 1.482824,3.6e-5 2.919324,0.231729 4.309506,0.695082 1.390141,0.417083 2.618117,1.158503 3.683932,2.22426 1.112105,1.019485 1.992541,2.409642 2.641309,4.170492 0.695055,1.71456 1.042595,3.89248 1.042622,6.53376 -2.7e-5,1.01948 -0.06953,2.10844 -0.208524,3.26689 -0.0927,1.15848 -0.25489,2.40963 -0.486557,3.75344 l -16.89048,0 c 0.09267,2.87301 0.695071,5.0741 1.807212,6.60327 1.112117,1.52919 2.896158,2.29378 5.352127,2.29377 1.482822,1e-5 2.826645,-0.23169 4.031473,-0.69508 1.251124,-0.46338 2.201068,-0.94994 2.849834,-1.45967 l 2.571801,5.76917 M 54.737348,102.73731 c -1.760887,3e-5 -3.08154,0.71828 -3.961964,2.15475 -0.880448,1.39019 -1.390174,3.35958 -1.52918,5.90819 l 9.592125,0 c 0.138996,-2.64128 -0.139036,-4.63385 -0.834098,-5.9777 -0.6951,-1.39013 -1.784059,-2.08521 -3.266883,-2.08524"
         style="font-size:57.9234581px;font-style:normal;font-variant:normal;font-weight:normal;font-stretch:normal;line-height:125%;letter-spacing:0px;word-spacing:0px;fill:#000000;fill-opacity:1;stroke:none;font-family:PT Sans;-inkscape-font-specification:PT Sans"
         id="path3040"
         inkscape:connector-curvature="0" />
      <path
         d="m 111.61459,97.732721 4.58753,0 -2.71081,18.975729 c -0.55611,4.21683 0.1158,6.32524 2.01573,6.32524 0.92674,0 1.83034,-0.27803 2.71082,-0.8341 0.92673,-0.55606 1.73766,-1.41332 2.43279,-2.5718 0.74137,-1.15846 1.3206,-2.6413 1.7377,-4.44852 0.46334,-1.8072 0.69503,-3.96195 0.69508,-6.46426 -5e-5,-3.19735 -0.46344,-5.93134 -1.39016,-8.20196 -0.88049,-2.316909 -2.13163,-4.193627 -3.75344,-5.630163 -1.6219,-1.482803 -3.54496,-2.571763 -5.76918,-3.266883 -2.2243,-0.695041 -4.65708,-1.042582 -7.29835,-1.042623 -2.96571,4.1e-5 -5.746036,0.602444 -8.340981,1.807212 -2.548653,1.158507 -4.772912,2.803532 -6.672782,4.935079 -1.853566,2.131615 -3.336405,4.680248 -4.448522,7.645898 -1.065803,2.9657 -1.598698,6.25575 -1.598687,9.87016 -1.1e-5,7.08984 1.76086,12.4883 5.282619,16.19539 3.521727,3.7071 8.4568,5.56065 14.805233,5.56066 1.20478,-1e-5 2.52543,-0.1622 3.96197,-0.48656 1.4828,-0.32438 2.80345,-0.78776 3.96196,-1.39016 l 2.01574,6.0472 c -1.48288,0.78775 -3.10474,1.36699 -4.86557,1.73771 -1.76091,0.41704 -3.75347,0.62556 -5.9777,0.62557 -3.660792,-1e-5 -7.089857,-0.55608 -10.287209,-1.66819 -3.151053,-1.11214 -5.908207,-2.82668 -8.27147,-5.14361 -2.363286,-2.2706 -4.240004,-5.16677 -5.63016,-8.68852 -1.343829,-3.56807 -2.01574,-7.7849 -2.015736,-12.65048 -4e-6,-4.86555 0.764585,-9.22139 2.293769,-13.06753 1.57551,-3.846085 3.660752,-7.089795 6.255733,-9.731141 2.594956,-2.641268 5.583803,-4.657002 8.966551,-6.047209 3.382705,-1.390116 6.927622,-2.085197 10.634742,-2.085245 3.52172,4.8e-5 6.81176,0.532943 9.87016,1.598688 3.10465,1.019497 5.76913,2.571844 7.99344,4.657046 2.27055,2.038944 4.05459,4.610743 5.35213,7.715404 1.29743,3.058387 1.94617,6.626467 1.94622,10.704257 -5e-5,3.05838 -0.46344,5.90821 -1.39016,8.5495 -0.88049,2.59498 -2.0853,4.84241 -3.61442,6.74229 -1.52923,1.85356 -3.33644,3.31323 -5.42164,4.37901 -2.03895,1.0658 -4.21687,1.59869 -6.53376,1.59869 -1.89993,0 -3.52179,-0.48655 -4.86557,-1.45967 -1.29752,-0.97311 -1.89993,-2.66447 -1.80722,-5.07409 l -0.20852,0 c -1.06582,1.76087 -2.36331,3.29005 -3.89246,4.58753 -1.48287,1.29749 -3.313244,1.94623 -5.49114,1.94623 -1.992589,0 -3.683952,-0.88043 -5.074095,-2.64131 -1.390181,-1.76087 -2.085261,-4.21682 -2.085244,-7.36786 -1.7e-5,-3.10468 0.370692,-6.02402 1.11213,-8.75803 0.78774,-2.73396 1.830361,-5.12041 3.127867,-7.15934 1.297463,-2.08521 2.803471,-3.73024 4.518029,-4.935076 1.714503,-1.204775 3.544883,-1.807178 5.491143,-1.807212 1.29745,3.4e-5 2.40958,0.231727 3.33639,0.695081 0.92674,0.463421 1.78401,1.088993 2.5718,1.87672 l 1.73771,-2.154752 m -3.68393,7.993439 c -0.83414,-0.97309 -1.9231,-1.45965 -3.26689,-1.45967 -1.06582,2e-5 -2.03893,0.3939 -2.91934,1.18164 -0.88046,0.74144 -1.64505,1.76089 -2.293769,3.05835 -0.648768,1.25117 -1.158494,2.71084 -1.529179,4.37902 -0.370735,1.62187 -0.55609,3.31323 -0.556065,5.07409 -2.5e-5,1.62187 0.254838,2.87302 0.764589,3.75344 0.55604,0.88045 1.390137,1.32066 2.502294,1.32066 1.01942,0 2.03888,-0.55606 3.05836,-1.6682 1.06576,-1.15846 1.94619,-2.43277 2.64131,-3.82295 l 1.59869,-11.81638"
         style="font-size:57.9234581px;font-style:normal;font-variant:normal;font-weight:normal;font-stretch:normal;line-height:125%;letter-spacing:0px;word-spacing:0px;fill:#000000;fill-opacity:1;stroke:none;font-family:PT Sans;-inkscape-font-specification:PT Sans"
         id="path3042"
         inkscape:connector-curvature="0" />
      <path
         d="m 161.92871,131.37466 c -3e-5,5.05092 -1.1585,8.75802 -3.47541,11.12131 -2.31696,2.4096 -5.5375,3.61441 -9.66163,3.61442 -2.87302,-1e-5 -5.12045,-0.23171 -6.74229,-0.69508 -1.62187,-0.41706 -2.87301,-0.88045 -3.75344,-1.39016 l 1.7377,-7.02033 c 1.01945,0.41705 2.10841,0.81093 3.26688,1.18164 1.2048,0.37071 2.61813,0.55606 4.24,0.55607 2.36326,-10e-6 3.98512,-0.64875 4.86557,-1.94623 0.92676,-1.25115 1.39014,-3.17421 1.39016,-5.76918 l 0,-1.87672 -0.20852,0 c -0.64876,0.92678 -1.5292,1.62186 -2.64131,2.08525 -1.06581,0.46339 -2.45597,0.69508 -4.17049,0.69508 -3.66077,0 -6.41793,-1.36699 -8.27147,-4.10098 -1.80721,-2.78032 -2.71082,-7.15933 -2.71082,-13.13704 0,-6.44107 1.25115,-11.19079 3.75344,-14.24917 2.54863,-3.058326 6.16305,-4.587504 10.84327,-4.587539 2.50228,3.5e-5 4.74971,0.208559 6.74229,0.625573 1.99255,0.370745 3.59123,0.834132 4.79607,1.390163 l 0,33.502923 M 149.0697,124.8409 c 1.25113,0 2.22424,-0.3012 2.91934,-0.90361 0.7414,-0.60239 1.29747,-1.45966 1.6682,-2.5718 l 0,-17.37704 c -0.50975,-0.23166 -1.08898,-0.41702 -1.73771,-0.55606 -0.60242,-0.13899 -1.32067,-0.2085 -2.15475,-0.20853 -1.71455,3e-5 -3.05837,0.83413 -4.03147,2.5023 -0.92679,1.66822 -1.39018,4.54122 -1.39017,8.61901 -1e-5,6.99716 1.57551,10.49573 4.72656,10.49573"
         style="font-size:57.9234581px;font-style:normal;font-variant:normal;font-weight:normal;font-stretch:normal;line-height:125%;letter-spacing:0px;word-spacing:0px;fill:#000000;fill-opacity:1;stroke:none;font-family:PT Sans;-inkscape-font-specification:PT Sans"
         id="path3044"
         inkscape:connector-curvature="0" />
      <path
         d="m 176.27237,120.11434 c -1e-5,1.62187 0.16217,2.78034 0.48655,3.47541 0.32436,0.69509 0.85726,1.04263 1.59869,1.04262 0.41704,1e-5 0.83409,-0.0463 1.25115,-0.13901 0.46337,-0.0927 0.9731,-0.25486 1.52918,-0.48656 l 0.76459,6.67278 c -0.55608,0.37071 -1.50603,0.71825 -2.84984,1.04263 -1.34383,0.32437 -2.71083,0.48655 -4.10098,0.48655 -2.31694,0 -4.05464,-0.57923 -5.21311,-1.7377 -1.15847,-1.15847 -1.7377,-3.12786 -1.7377,-5.90819 l 0,-41.843909 8.27147,0 0,37.395379"
         style="font-size:57.9234581px;font-style:normal;font-variant:normal;font-weight:normal;font-stretch:normal;line-height:125%;letter-spacing:0px;word-spacing:0px;fill:#000000;fill-opacity:1;stroke:none;font-family:PT Sans;-inkscape-font-specification:PT Sans"
         id="path3047"
         inkscape:connector-curvature="0" />
      <path
         d="m 184.76541,98.705835 c 1.39015,-0.834065 3.12786,-1.505976 5.21311,-2.015737 2.08523,-0.509691 4.4485,-0.764554 7.08983,-0.764589 3.93877,3.5e-5 6.67276,1.019487 8.20196,3.058358 1.57549,2.038933 2.36325,4.935103 2.36328,8.688523 -3e-5,2.17794 -0.0695,4.33269 -0.20853,6.46425 -0.0927,2.08526 -0.16221,4.14734 -0.20852,6.18623 -0.0464,1.99257 -0.0232,3.9388 0.0695,5.83868 0.13899,1.85356 0.46336,3.61443 0.97311,5.28262 l -6.74229,0 -1.32066,-4.23999 -0.27803,0 c -0.74144,1.34382 -1.78406,2.45595 -3.12787,3.33639 -1.34383,0.88043 -3.0352,1.32065 -5.07409,1.32065 -2.73399,0 -4.88875,-0.9036 -6.46426,-2.71082 -1.57552,-1.85354 -2.36328,-4.3095 -2.36327,-7.36786 -1e-5,-4.17048 1.48283,-7.13615 4.44852,-8.89704 2.96567,-1.76086 6.97397,-2.50228 12.02491,-2.22426 0.23167,-2.68763 0.0463,-4.63386 -0.55607,-5.83869 -0.55608,-1.20478 -1.78406,-1.80718 -3.68393,-1.80721 -1.39018,3e-5 -2.82668,0.16221 -4.30951,0.48656 -1.48284,0.3244 -2.8035,0.78778 -3.96196,1.39016 l -2.08524,-6.186225 m 9.93966,26.065555 c 1.25113,1e-5 2.27058,-0.30119 3.05836,-0.90361 0.78774,-0.64873 1.36697,-1.34381 1.7377,-2.08524 l 0,-5.76918 c -1.06581,-0.139 -2.08526,-0.16217 -3.05836,-0.0695 -0.97312,0.0927 -1.83039,0.30121 -2.5718,0.62557 -0.74143,0.32438 -1.34383,0.81094 -1.80721,1.45967 -0.41706,0.60242 -0.62558,1.39017 -0.62557,2.36328 -10e-6,1.43651 0.27802,2.52547 0.8341,3.26688 0.60239,0.74143 1.41332,1.11214 2.43278,1.11213"
         style="font-size:57.9234581px;font-style:normal;font-variant:normal;font-weight:normal;font-stretch:normal;line-height:125%;letter-spacing:0px;word-spacing:0px;fill:#000000;fill-opacity:1;stroke:none;font-family:PT Sans;-inkscape-font-specification:PT Sans"
         id="path3049"
         inkscape:connector-curvature="0" />
      <path
         d="m 225.01821,122.13008 c -2e-5,-0.9731 -0.32439,-1.78403 -0.97312,-2.43278 -0.60241,-0.69507 -1.39017,-1.32065 -2.36327,-1.87672 -0.97313,-0.60239 -2.01575,-1.2048 -3.12787,-1.80722 -1.0658,-0.60238 -2.08525,-1.3438 -3.05836,-2.22426 -0.97312,-0.88042 -1.78404,-1.94621 -2.43278,-3.19737 -0.60241,-1.25113 -0.90361,-2.82664 -0.90361,-4.72656 0,-3.24368 0.88044,-5.74597 2.64131,-7.506876 1.76087,-1.760838 4.35584,-2.641274 7.78491,-2.64131 2.0389,3.6e-5 3.96195,0.23173 5.76918,0.695082 1.80719,0.417083 3.24369,0.949978 4.30951,1.598687 l -1.94623,6.394747 c -0.88046,-0.37068 -1.94625,-0.71822 -3.19738,-1.04262 -1.25116,-0.37068 -2.47914,-0.55604 -3.68393,-0.55606 -2.27061,2e-5 -3.40591,0.94997 -3.4059,2.84983 -1e-5,0.88046 0.30119,1.62188 0.90361,2.22426 0.64873,0.55609 1.45966,1.11215 2.43278,1.6682 0.9731,0.55608 1.99255,1.13532 3.05836,1.7377 1.11211,0.60242 2.15473,1.36701 3.12787,2.29377 0.97309,0.88045 1.76085,1.96941 2.36327,3.26688 0.64872,1.2975 0.9731,2.89619 0.97312,4.79606 -2e-5,3.19738 -0.97314,5.76918 -2.91934,7.71541 -1.94625,1.94623 -4.84242,2.91934 -8.68852,2.91934 -1.8999,0 -3.77662,-0.23169 -5.63016,-0.69508 -1.80722,-0.46339 -3.26689,-1.06579 -4.37902,-1.80721 l 2.29377,-6.67279 c 0.97311,0.55608 2.08524,1.04263 3.33639,1.45968 1.29748,0.41705 2.6413,0.62558 4.03148,0.62557 1.06578,1e-5 1.94621,-0.23169 2.64131,-0.69508 0.69506,-0.50972 1.0426,-1.29748 1.04262,-2.36328"
         style="font-size:57.9234581px;font-style:normal;font-variant:normal;font-weight:normal;font-stretch:normal;line-height:125%;letter-spacing:0px;word-spacing:0px;fill:#000000;fill-opacity:1;stroke:none;font-family:PT Sans;-inkscape-font-specification:PT Sans"
         id="path3051"
         inkscape:connector-curvature="0" />
      <path
         d="m 254.87958,131.37466 0,-21.13047 c -2e-5,-2.54861 -0.30122,-4.33265 -0.9036,-5.35213 -0.60243,-1.01943 -1.62188,-1.52915 -3.05836,-1.52918 -1.20483,3e-5 -2.24745,0.37074 -3.12787,1.11213 -0.88045,0.74145 -1.50602,1.66822 -1.87672,2.78033 l 0,24.11932 -8.27147,0 0,-34.75407 6.60327,0 0.97312,4.03147 0.20852,0 c 0.83409,-1.343789 1.96939,-2.479088 3.4059,-3.405896 1.43649,-0.973079 3.31321,-1.459636 5.63016,-1.459672 1.39014,3.6e-5 2.61812,0.20856 3.68393,0.625574 1.11211,0.417083 2.03888,1.112164 2.78033,2.085244 0.74139,0.926807 1.29746,2.20112 1.6682,3.82295 0.37068,1.57554 0.55603,3.54494 0.55606,5.90819 l 0,23.14621 -8.27147,0"
         style="font-size:57.9234581px;font-style:normal;font-variant:normal;font-weight:normal;font-stretch:normal;line-height:125%;letter-spacing:0px;word-spacing:0px;fill:#000000;fill-opacity:1;stroke:none;font-family:PT Sans;-inkscape-font-specification:PT Sans"
         id="path3053"
         inkscape:connector-curvature="0" />
      <path
         d="m 266.15511,96.62059 3.82295,0 0,-6.533766 8.27147,-2.571801 0,9.105567 6.74229,0 0,7.36786 -6.74229,0 0,15.15278 c -2e-5,1.99258 0.18534,3.40591 0.55606,4.24 0.41704,0.8341 1.13529,1.25115 2.15475,1.25114 0.69507,1e-5 1.32064,-0.0695 1.87672,-0.20852 0.55605,-0.13901 1.15845,-0.34753 1.80722,-0.62557 l 1.04262,6.60327 c -1.01947,0.50973 -2.20111,0.92678 -3.54492,1.25115 -1.34384,0.37071 -2.75717,0.55606 -4.24,0.55606 -2.64131,0 -4.63388,-0.76459 -5.9777,-2.29377 -1.29749,-1.52917 -1.94623,-4.10097 -1.94622,-7.7154 l 0,-18.21114 -3.82295,0 0,-7.36786"
         style="font-size:57.9234581px;font-style:normal;font-variant:normal;font-weight:normal;font-stretch:normal;line-height:125%;letter-spacing:0px;word-spacing:0px;fill:#000000;fill-opacity:1;stroke:none;font-family:PT Sans;-inkscape-font-specification:PT Sans"
         id="path3055"
         inkscape:connector-curvature="0" />
      <path
         d="m 292.46829,126.85663 c 0,-1.71452 0.44021,-3.01201 1.32065,-3.89245 0.92677,-0.88043 2.13158,-1.32065 3.61443,-1.32066 1.62184,1e-5 2.87299,0.44023 3.75344,1.32066 0.88042,0.88044 1.32064,2.17793 1.32065,3.89245 -1e-5,1.6682 -0.4634,2.96569 -1.39016,3.89246 -0.88045,0.92678 -2.10842,1.39016 -3.68393,1.39016 -1.52919,0 -2.734,-0.46338 -3.61443,-1.39016 -0.88044,-0.92677 -1.32065,-2.22426 -1.32065,-3.89246"
         style="font-size:57.9234581px;font-style:normal;font-variant:normal;font-weight:normal;font-stretch:normal;line-height:125%;letter-spacing:0px;word-spacing:0px;fill:#000000;fill-opacity:1;stroke:none;font-family:PT Sans;-inkscape-font-specification:PT Sans"
         id="path3057"
         inkscape:connector-curvature="0" />
      <path
         d="m 328.3964,129.49794 c -1.15849,0.92678 -2.54865,1.62186 -4.17049,2.08525 -1.62187,0.46339 -3.24373,0.69508 -4.86557,0.69508 -2.36329,0 -4.35585,-0.41705 -5.9777,-1.25115 -1.57552,-0.88043 -2.87301,-2.10841 -3.89245,-3.68393 -1.01946,-1.62185 -1.76088,-3.54491 -2.22426,-5.76917 -0.41705,-2.27059 -0.62558,-4.79605 -0.62558,-7.57639 0,-6.07036 1.08896,-10.63472 3.26689,-13.69311 2.17791,-3.058322 5.37528,-4.5875 9.59212,-4.587536 2.08523,3.6e-5 3.77659,0.185391 5.07409,0.556065 1.34381,0.370745 2.52545,0.834133 3.54492,1.390163 l -1.94623,6.881308 c -0.83412,-0.41702 -1.64504,-0.71822 -2.43278,-0.90361 -0.74144,-0.23166 -1.64505,-0.34751 -2.71082,-0.34754 -1.94624,3e-5 -3.40591,0.8573 -4.37901,2.5718 -0.97313,1.66822 -1.45969,4.37904 -1.45968,8.13246 -10e-6,3.15105 0.48655,5.72285 1.45968,7.7154 1.01944,1.99258 2.61812,2.98886 4.79606,2.98885 1.15845,1e-5 2.13156,-0.13901 2.91934,-0.41705 0.83408,-0.32436 1.59867,-0.71824 2.29377,-1.18164 l 1.7377,6.39475"
         style="font-size:57.9234581px;font-style:normal;font-variant:normal;font-weight:normal;font-stretch:normal;line-height:125%;letter-spacing:0px;word-spacing:0px;fill:#000000;fill-opacity:1;stroke:none;font-family:PT Sans;-inkscape-font-specification:PT Sans"
         id="path3059"
         inkscape:connector-curvature="0" />
      <path
         d="m 329.99076,113.99763 c -1e-5,-6.16304 1.2048,-10.75057 3.61442,-13.76262 2.40961,-3.011982 5.76916,-4.51799 10.07868,-4.518026 4.63386,3.6e-5 8.08609,1.529214 10.35671,4.587536 2.27058,3.05839 3.40587,7.62275 3.4059,13.69311 -3e-5,6.2094 -1.20483,10.82011 -3.61442,13.83212 -2.40964,2.96568 -5.79237,4.44852 -10.14819,4.44852 -9.12874,0 -13.69311,-6.09354 -13.6931,-18.28064 m 8.5495,0 c -10e-6,3.47542 0.39387,6.16306 1.18164,8.06294 0.78774,1.8999 2.1084,2.84984 3.96196,2.84984 1.76086,0 3.05834,-0.81092 3.89246,-2.43279 0.88041,-1.66818 1.32063,-4.49485 1.32065,-8.47999 -2e-5,-3.56807 -0.3939,-6.27888 -1.18164,-8.13246 -0.78777,-1.85352 -2.1316,-2.78029 -4.03147,-2.78032 -1.62187,3e-5 -2.89618,0.83412 -3.82295,2.50229 -0.88044,1.62188 -1.32066,4.42537 -1.32065,8.41049"
         style="font-size:57.9234581px;font-style:normal;font-variant:normal;font-weight:normal;font-stretch:normal;line-height:125%;letter-spacing:0px;word-spacing:0px;fill:#000000;fill-opacity:1;stroke:none;font-family:PT Sans;-inkscape-font-specification:PT Sans"
         id="path3061"
         inkscape:connector-curvature="0" />
      <path
         d="m 378.25113,131.37466 0,-20.22687 c -10e-6,-2.91932 -0.23171,-4.93505 -0.69508,-6.04721 -0.4634,-1.15844 -1.36701,-1.73767 -2.71081,-1.7377 -1.11215,3e-5 -2.03892,0.37074 -2.78033,1.11213 -0.69509,0.69511 -1.22799,1.55237 -1.59869,2.5718 l 0,24.32785 -8.27147,0 0,-34.75407 6.39475,0 1.04262,4.17049 0.20853,0 c 0.88042,-1.436471 1.96938,-2.618108 3.26688,-3.544916 1.34381,-0.973079 3.10468,-1.459636 5.28262,-1.459672 1.80719,3.6e-5 3.26686,0.393915 4.37901,1.181639 1.15845,0.787793 2.06205,2.177954 2.71082,4.170489 0.88041,-1.668164 2.03888,-2.965648 3.47541,-3.892456 1.43647,-0.973079 3.12783,-1.459636 5.07409,-1.459672 1.52915,3.6e-5 2.82663,0.20856 3.89246,0.625574 1.11209,0.370744 1.99253,1.042656 2.64131,2.015736 0.69504,0.973146 1.20477,2.316968 1.52918,4.031468 0.32433,1.66823 0.48651,3.79981 0.48656,6.39475 l 0,22.52064 -8.27147,0 0,-21.13047 c -4e-5,-2.36326 -0.20856,-4.10096 -0.62558,-5.21311 -0.41708,-1.11211 -1.34385,-1.66817 -2.78032,-1.6682 -1.1585,3e-5 -2.10845,0.34757 -2.84984,1.04262 -0.69511,0.64877 -1.20483,1.55238 -1.52918,2.71082 l 0,24.25834 -8.27147,0"
         style="font-size:57.9234581px;font-style:normal;font-variant:normal;font-weight:normal;font-stretch:normal;line-height:125%;letter-spacing:0px;word-spacing:0px;fill:#000000;fill-opacity:1;stroke:none;font-family:PT Sans;-inkscape-font-specification:PT Sans"
         id="path3063"
         inkscape:connector-curvature="0" />
    </g>
    <flowRoot
       xml:space="preserve"
       id="flowRoot3843"
       style="font-size:40px;font-style:normal;font-weight:normal;line-height:125%;letter-spacing:0px;word-spacing:0px;fill:#000000;fill-opacity:1;stroke:none;font-family:Sans"><flowRegion
         id="flowRegion3845"><rect
           id="rect3847"
           width="1188.5714"
           height="820"
           x="-117.14286"
           y="-251.44197" /></flowRegion><flowPara
         id="flowPara3849" /></flowRoot>    <path
       inkscape:connector-curvature="0"
       d="m 188.95679,29.686245 c -0.46406,-0.46406 -1.02728,-0.69594 -1.69057,-0.69594 h -0.79478 v -4.773 c 0,-3.04919 -1.0938,-5.667259 -3.28107,-7.854836 -2.18758,-2.187576 -4.80564,-3.281364 -7.85514,-3.281364 -3.04948,0 -5.66786,1.093788 -7.85513,3.281364 -2.18757,2.187577 -3.28106,4.805646 -3.28106,7.854836 v 4.773 h -0.7954 c -0.66268,0 -1.22621,0.23188 -1.69027,0.69594 -0.46405,0.46375 -0.69593,1.02727 -0.69593,1.69056 v 14.3181 c 0,0.66268 0.23188,1.22621 0.69593,1.69027 0.46406,0.46375 1.02759,0.69593 1.69027,0.69593 h 23.8632 c 0.66328,0 1.2265,-0.23188 1.69056,-0.69593 0.46376,-0.46406 0.69593,-1.02759 0.69593,-1.69027 v -14.3184 c 3.1e-4,-0.66269 -0.23217,-1.2262 -0.69654,-1.69026 z m -7.25805,-0.69594 h -12.72701 v -4.773 c 0,-1.75647 0.62151,-3.25635 1.86448,-4.49903 1.24298,-1.242979 2.74256,-1.864165 4.49933,-1.864165 1.75677,0 3.25635,0.621186 4.49903,1.864165 1.24267,1.24268 1.86417,2.74256 1.86417,4.49903 v 4.773 z"
       id="path3092"
       style="fill:#666666;fill-opacity:1" />
    <g
       id="g3976"
       transform="translate(1.6184988,4)">
      <g
         transform="matrix(0.27968005,0,0,0.27968005,107.14098,171.28156)"
         id="g3012"
         style="fill:#000000;fill-opacity:1">
        <path
           inkscape:connector-curvature="0"
           d="m 90.565,111.048 c -0.87,0.163 -1.25,0.571 -1.141,1.222 0.108,0.652 0.597,0.869 1.466,0.652 0.87,-0.218 1.25,-0.598 1.141,-1.141 -0.108,-0.597 -0.597,-0.842 -1.466,-0.733 z"
           id="path3014"
           style="fill:#000000;fill-opacity:1" />
        <path
           inkscape:connector-curvature="0"
           d="m 85.921,111.7 c -0.869,0 -1.304,0.298 -1.304,0.896 0,0.706 0.462,1.004 1.385,0.896 0.869,0 1.304,-0.299 1.304,-0.896 0,-0.705 -0.462,-1.005 -1.385,-0.896 z"
           id="path3016"
           style="fill:#000000;fill-opacity:1" />
        <path
           inkscape:connector-curvature="0"
           d="m 79.566,111.454 c -0.217,0.598 0.136,1.005 1.059,1.223 0.815,0.325 1.331,0.162 1.548,-0.489 0.163,-0.597 -0.19,-1.031 -1.059,-1.304 -0.815,-0.217 -1.331,-0.029 -1.548,0.57 z"
           id="path3018"
           style="fill:#000000;fill-opacity:1" />
        <path
           inkscape:connector-curvature="0"
           d="m 163.686,17.313 c -4.59,-4.589 -10.115,-6.884 -16.58,-6.884 H 68.892 c -6.463,0 -11.99,2.295 -16.58,6.884 -4.589,4.59 -6.884,10.117 -6.884,16.58 v 78.215 c 0,6.464 2.295,11.99 6.884,16.579 4.59,4.59 10.117,6.885 16.58,6.885 h 18.25 c 1.194,0 2.091,-0.041 2.688,-0.121 0.597,-0.082 1.194,-0.436 1.792,-1.061 0.598,-0.624 0.896,-1.534 0.896,-2.729 0,-0.162 -0.014,-2.01 -0.041,-5.541 -0.028,-3.53 -0.041,-6.328 -0.041,-8.392 l -1.874,0.326 c -1.195,0.217 -2.702,0.312 -4.522,0.285 -1.819,-0.027 -3.707,-0.217 -5.662,-0.57 -1.956,-0.353 -3.775,-1.168 -5.459,-2.444 -1.683,-1.276 -2.878,-2.946 -3.584,-5.01 L 70.52,108.44 c -0.543,-1.248 -1.398,-2.634 -2.566,-4.154 -1.168,-1.521 -2.349,-2.553 -3.544,-3.096 l -0.57,-0.408 c -0.38,-0.271 -0.733,-0.598 -1.059,-0.978 -0.326,-0.38 -0.57,-0.761 -0.733,-1.141 -0.163,-0.38 -0.028,-0.693 0.407,-0.938 0.435,-0.244 1.222,-0.365 2.363,-0.365 l 1.629,0.244 c 1.086,0.217 2.43,0.868 4.033,1.955 1.602,1.086 2.919,2.498 3.951,4.236 1.25,2.227 2.756,3.924 4.522,5.092 1.765,1.168 3.544,1.752 5.336,1.752 1.792,0 3.34,-0.136 4.644,-0.406 1.303,-0.272 2.525,-0.68 3.666,-1.224 0.489,-3.639 1.82,-6.437 3.992,-8.392 -3.096,-0.326 -5.879,-0.815 -8.351,-1.467 -2.471,-0.652 -5.024,-1.711 -7.658,-3.178 -2.635,-1.467 -4.821,-3.285 -6.559,-5.459 -1.738,-2.173 -3.164,-5.025 -4.277,-8.555 -1.113,-3.531 -1.67,-7.605 -1.67,-12.221 0,-6.572 2.146,-12.167 6.437,-16.784 -2.01,-4.942 -1.82,-10.482 0.57,-16.62 1.575,-0.489 3.911,-0.122 7.007,1.1 3.096,1.223 5.363,2.269 6.803,3.137 1.44,0.868 2.594,1.602 3.463,2.2 5.052,-1.412 10.266,-2.118 15.643,-2.118 5.377,0 10.592,0.706 15.644,2.118 l 3.096,-1.955 c 2.119,-1.304 4.617,-2.499 7.496,-3.585 2.879,-1.086 5.078,-1.385 6.6,-0.896 2.443,6.138 2.661,11.678 0.65,16.62 4.291,4.617 6.438,10.212 6.438,16.784 0,4.617 -0.557,8.705 -1.67,12.262 -1.113,3.557 -2.552,6.409 -4.318,8.555 -1.765,2.146 -3.965,3.951 -6.599,5.418 -2.635,1.466 -5.187,2.526 -7.659,3.177 -2.472,0.653 -5.255,1.142 -8.351,1.468 2.823,2.444 4.235,6.3 4.235,11.569 v 19.472 c 0,0.924 0.135,1.67 0.407,2.241 0.272,0.57 0.706,0.963 1.304,1.181 0.599,0.218 1.127,0.353 1.59,0.407 0.462,0.055 1.127,0.082 1.996,0.082 h 18.25 c 6.463,0 11.99,-2.295 16.578,-6.885 4.59,-4.59 6.885,-10.117 6.885,-16.58 V 33.893 c -0.001,-6.463 -2.296,-11.991 -6.885,-16.58 z"
           id="path3020"
           style="fill:#000000;fill-opacity:1" />
        <path
           inkscape:connector-curvature="0"
           d="m 70.196,101.516 c -0.38,0.271 -0.326,0.705 0.163,1.303 0.544,0.543 0.978,0.625 1.304,0.244 0.38,-0.271 0.326,-0.705 -0.164,-1.304 -0.543,-0.488 -0.977,-0.57 -1.303,-0.243 z"
           id="path3022"
           style="fill:#000000;fill-opacity:1" />
        <path
           inkscape:connector-curvature="0"
           d="m 67.508,99.479 c -0.163,0.381 0.027,0.707 0.57,0.978 0.434,0.272 0.788,0.218 1.059,-0.163 0.163,-0.38 -0.027,-0.706 -0.57,-0.979 -0.543,-0.163 -0.896,-0.108 -1.059,0.164 z"
           id="path3024"
           style="fill:#000000;fill-opacity:1" />
        <path
           inkscape:connector-curvature="0"
           d="m 72.722,104.694 c -0.489,0.271 -0.489,0.76 0,1.466 0.489,0.706 0.95,0.896 1.385,0.57 0.489,-0.381 0.489,-0.896 0,-1.549 -0.434,-0.704 -0.896,-0.869 -1.385,-0.487 z"
           id="path3026"
           style="fill:#000000;fill-opacity:1" />
        <path
           inkscape:connector-curvature="0"
           d="m 75.574,108.359 c -0.489,0.435 -0.381,0.949 0.326,1.548 0.651,0.651 1.194,0.733 1.629,0.243 0.435,-0.434 0.326,-0.949 -0.326,-1.547 -0.651,-0.651 -1.194,-0.733 -1.629,-0.244 z"
           id="path3028"
           style="fill:#000000;fill-opacity:1" />
      </g>
      <g
         transform="translate(-110.48105,-13.013318)"
         id="g3966">
        <g
           id="g3960"
           transform="translate(-14.360954,0)">
          <path
             style="fill:#e6e6e6;stroke:none"
             id="path3675-8"
             d="m 364.89929,189.26045 c -1.273,-1.27328 -2.80654,-1.91006 -4.59978,-1.91006 h -21.70176 c -1.79324,0 -3.32678,0.63678 -4.60033,1.91006 -1.27328,1.27355 -1.91006,2.80709 -1.91006,4.60033 v 21.70148 c 0,1.79324 0.63678,3.32678 1.91006,4.60034 1.27355,1.27355 2.80709,1.91033 4.60033,1.91033 h 21.70148 c 1.79324,0 3.32678,-0.63678 4.59978,-1.91033 1.27356,-1.27356 1.91033,-2.8071 1.91033,-4.60034 v -21.70148 c 0,-1.79324 -0.63677,-3.32678 -1.91005,-4.60033 z m -18.43463,18.84195 c -0.9345,0.93449 -2.06461,1.40202 -3.39088,1.40202 -1.32627,0 -2.45638,-0.46753 -3.39087,-1.40202 -0.93422,-0.93422 -1.40147,-2.06461 -1.40147,-3.39088 0,-1.32655 0.46697,-2.45666 1.40147,-3.39087 0.93422,-0.9345 2.0646,-1.40175 3.39087,-1.40175 1.32627,0 2.45638,0.46725 3.39088,1.40175 0.93421,0.93421 1.40146,2.06432 1.40146,3.39087 0,1.326 -0.46725,2.45666 -1.40146,3.39088 z m 12.74914,0 c -0.93394,0.93449 -2.06433,1.40202 -3.39088,1.40202 -1.32599,0 -2.45665,-0.46753 -3.39115,-1.40202 -0.93394,-0.93422 -1.40146,-2.06461 -1.40146,-3.39088 0,-1.32655 0.46752,-2.45666 1.40146,-3.39087 0.9345,-0.9345 2.06488,-1.40175 3.39115,-1.40175 1.32628,0 2.45666,0.46725 3.39088,1.40175 0.93421,0.93421 1.40202,2.06432 1.40202,3.39087 0,1.326 -0.46781,2.45666 -1.40202,3.39088 z"
             inkscape:connector-curvature="0" />
          <path
             inkscape:connector-curvature="0"
             id="path3938"
             d="m 354.16933,210.85192 c -1.79334,-0.35921 -3.45221,-1.66741 -4.25569,-3.35607 -0.20931,-0.43988 -0.43157,-1.01865 -0.49392,-1.28617 -0.16032,-0.68784 -0.13822,-2.21832 0.0421,-2.91821 0.55107,-2.13813 2.26751,-3.89025 4.3373,-4.42744 1.3524,-0.351 3.18114,-0.18604 4.30787,0.3886 1.48521,0.75747 2.65459,2.13402 3.16647,3.72746 0.29141,0.9072 0.33004,2.49159 0.083,3.40646 -0.35607,1.31882 -1.3049,2.65967 -2.47696,3.50039 -1.30565,0.93653 -3.05899,1.29574 -4.71024,0.96498 l 0,0 z"
             style="fill:#e6e6e6;fill-opacity:1;stroke:#000000;stroke-width:0;stroke-miterlimit:4;stroke-opacity:0.56621004;stroke-dasharray:none" />
          <path
             transform="translate(-142.52736,-56.11885)"
             inkscape:connector-curvature="0"
             id="path3940"
             d="m 484.99822,265.56059 c -0.0751,-0.0174 -0.30559,-0.0647 -0.51217,-0.10505 -0.20657,-0.0404 -0.62142,-0.19159 -0.92189,-0.33599 -0.9904,-0.47599 -1.77009,-1.24444 -2.2518,-2.21935 -0.78619,-1.59113 -0.52731,-3.74329 0.61065,-5.07644 1.03479,-1.21229 2.16905,-1.7345 3.74606,-1.72469 1.61731,0.0101 3.003,0.77278 3.93466,2.16574 1.09046,1.63037 0.97975,3.9471 -0.26235,5.49001 -0.92875,1.15367 -2.09728,1.75404 -3.5237,1.81041 -0.37559,0.0148 -0.74435,0.0128 -0.81946,-0.005 l 0,-10e-6 z"
             style="fill:#e6e6e6;fill-opacity:1;stroke:#000000;stroke-width:0;stroke-miterlimit:4;stroke-opacity:0.56621004;stroke-dasharray:none" />
          <path
             inkscape:connector-curvature="0"
             id="path3938-6"
             d="m 340.73231,210.64631 c -1.79334,-0.35921 -3.45221,-1.66741 -4.25569,-3.35607 -0.20931,-0.43988 -0.43157,-1.01865 -0.49392,-1.28617 -0.16032,-0.68784 -0.13822,-2.21832 0.0421,-2.91821 0.55107,-2.13813 2.26751,-3.89025 4.3373,-4.42744 1.3524,-0.351 3.18114,-0.18604 4.30787,0.3886 1.48521,0.75747 2.65459,2.13402 3.16647,3.72746 0.29141,0.9072 0.33004,2.49159 0.083,3.40646 -0.35607,1.31882 -1.3049,2.65967 -2.47696,3.50039 -1.30565,0.93653 -3.05899,1.29574 -4.71024,0.96498 l 0,0 z"
             style="fill:#e6e6e6;fill-opacity:1;stroke:#000000;stroke-width:0;stroke-miterlimit:4;stroke-opacity:0.56621004;stroke-dasharray:none" />
        </g>
        <g
           id="g4607"
           transform="matrix(0.27746288,0,0,0.25895979,305.31037,185.69857)">
          <path
             id="path4776"
             d="m 102.20455,73.421008 c 0,11.210806 -8.211562,20.298556 -18.341582,20.298556 -10.129526,0 -18.341587,-9.088253 -18.341587,-20.298556 0,-11.210807 8.211567,-20.298556 18.341587,-20.298556 10.129526,0 18.341582,9.088252 18.341582,20.298556 z"
             inkscape:connector-curvature="0"
             style="fill:#0059d4" />
          <path
             id="path4778"
             d="m 149.11651,73.154431 c 0,11.061926 -8.4486,20.028963 -18.87046,20.028963 -10.42186,0 -18.87045,-8.96754 -18.87045,-20.028963 0,-11.061925 8.44859,-20.028961 18.87045,-20.028961 10.42186,0 18.87046,8.967539 18.87046,20.028961 z"
             inkscape:connector-curvature="0"
             style="fill:#da1593" />
        </g>
      </g>
      <path
         style="fill:#55acef;fill-opacity:0.94117647"
         id="path4692"
         d="m 196.5507,176.12365 c -1.28317,-1.28345 -2.82896,-1.92531 -4.63653,-1.92531 h -21.87518 c -1.80757,0 -3.35336,0.64186 -4.63709,1.92531 -1.28345,1.28373 -1.92532,2.82953 -1.92532,4.6371 v 21.87489 c 0,1.80758 0.64187,3.35337 1.92532,4.6371 1.28373,1.28373 2.82952,1.9256 4.63709,1.9256 h 21.8749 c 1.80757,0 3.35336,-0.64187 4.63653,-1.9256 1.28373,-1.28373 1.9256,-2.82952 1.9256,-4.6371 v -21.87489 c 0,-1.80757 -0.64187,-3.35365 -1.92532,-4.6371 z m -6.30035,11.54156 c 0.0154,0.13676 0.0229,0.34149 0.0229,0.6153 0,1.27618 -0.18626,2.55599 -0.55824,3.83944 -0.37197,1.28374 -0.94168,2.51405 -1.70884,3.6915 -0.76689,1.17717 -1.68228,2.21786 -2.74534,3.12151 -1.06363,0.90365 -2.33925,1.6255 -3.82826,2.16444 -1.48846,0.53979 -3.08375,0.8094 -4.78505,0.8094 -2.64297,0 -5.08878,-0.71431 -7.33712,-2.14179 0.3647,0.0453 0.7445,0.0682 1.13941,0.0682 2.20276,0 4.18513,-0.68354 5.9474,-2.0509 -1.03286,-0.0151 -1.9558,-0.33365 -2.76855,-0.95706 -0.81275,-0.62285 -1.37855,-1.41266 -1.69766,-2.36973 0.39491,0.0607 0.69109,0.0906 0.88854,0.0906 0.33422,0 0.72158,-0.0604 1.16207,-0.18179 -1.10893,-0.21312 -2.04306,-0.76325 -2.80267,-1.65207 -0.75961,-0.88855 -1.13942,-1.90267 -1.13942,-3.0418 v -0.0456 c 0.80492,0.37952 1.56453,0.57698 2.27855,0.59236 -1.38245,-0.92686 -2.07354,-2.2559 -2.07354,-3.98768 0,-0.85078 0.22011,-1.6557 0.6606,-2.41532 1.20011,1.47364 2.65864,2.65081 4.37504,3.5318 1.71639,0.881 3.55473,1.37491 5.51417,1.48119 -0.0758,-0.28863 -0.11383,-0.65333 -0.11383,-1.09383 0,-1.32177 0.46706,-2.44944 1.4012,-3.38385 0.93441,-0.93413 2.06236,-1.40147 3.38384,-1.40147 1.39784,0 2.55992,0.50146 3.4865,1.50412 1.04824,-0.19746 2.06655,-0.5851 3.05354,-1.16208 -0.37952,1.16935 -1.08628,2.05817 -2.11885,2.66591 0.98699,-0.13704 1.90602,-0.39518 2.75652,-0.77499 -0.63795,0.97245 -1.43588,1.8003 -2.39294,2.48412 z"
         inkscape:connector-curvature="0" />
    </g>
    <text
       xml:space="preserve"
       style="font-size:40px;font-style:normal;font-weight:normal;line-height:125%;letter-spacing:0px;word-spacing:0px;fill:#000000;fill-opacity:1;stroke:none;font-family:Sans"
       x="-23.589945"
       y="203.58034"
       id="text3049"
       sodipodi:linespacing="125%"><tspan
         sodipodi:role="line"
         id="tspan3051"
         x="-23.589945"
         y="203.58034"
         style="font-size:28px;font-style:normal;font-variant:normal;font-weight:bold;font-stretch:condensed;font-family:PT Sans Narrow;-inkscape-font-specification:PT Sans Narrow Bold Condensed">oh, hi!</tspan></text>
    <path
       style="fill:none;stroke:#000000;stroke-width:3.00000024;stroke-linecap:butt;stroke-linejoin:miter;stroke-miterlimit:4;stroke-opacity:0.56621004;stroke-dasharray:none"
       d="m -56.828983,75.786928 0,-12.999998 260.453833,0 203.87491,3e-6 0,12.999997"
       id="path3062-3"
       inkscape:connector-curvature="0"
       sodipodi:nodetypes="ccccc" />
    <path
       style="fill:none;stroke:#000000;stroke-width:3;stroke-linecap:butt;stroke-linejoin:miter;stroke-miterlimit:4;stroke-opacity:0.56621004;stroke-dasharray:none"
       d="m -56.828983,144.85132 0,13 71.38188,0 55.875446,0 0,-13"
       id="path3062-3-2"
       inkscape:connector-curvature="0"
       sodipodi:nodetypes="ccccc" />
    <path
       style="fill:none;stroke:#000000;stroke-width:3;stroke-linecap:butt;stroke-linejoin:miter;stroke-miterlimit:4;stroke-opacity:0.56621004;stroke-dasharray:none"
       d="m 75.192079,144.85132 0,13 120.411901,0 94.25456,-10e-6 0,-12.99999"
       id="path3062-3-2-6"
       inkscape:connector-curvature="0"
       sodipodi:nodetypes="ccccc" />
  </g>
</svg>
